<?xml version="1.0" encoding="utf-8"?>
<!-- Generator: Adobe Illustrator 21.0.0, SVG Export Plug-In . SVG Version: 6.00 Build 0)  -->
<svg version="1.1" xmlns="http://www.w3.org/2000/svg" xmlns:xlink="http://www.w3.org/1999/xlink" x="0px" y="0px"
	 viewBox="0 0 369 442" style="enable-background:new 0 0 369 442;" xml:space="preserve">
<style type="text/css">
	.st0{fill:#606060;}
</style>
<path class="st0" d="M369.6,131.2c0-5.5-4.5-10-10-10h-50.5V77.1C309.1,34.6,274.5,0,232,0c-17.7,0-34,6-47,16C172,6,155.7,0,138,0
	C95.5,0,60.9,34.6,60.9,77.1v44.1H10.4c-5.5,0-10,4.5-10,10V432c0,5.5,4.5,10,10,10h255.2h94c1.1,0,2.1-0.2,3-0.5
	c0.1,0,0.1-0.1,0.2-0.1c0.2-0.1,0.5-0.2,0.7-0.3c0.1-0.1,0.2-0.1,0.3-0.2c0.2-0.1,0.4-0.2,0.5-0.3c0.1-0.1,0.3-0.2,0.4-0.2
	c0.2-0.1,0.3-0.2,0.5-0.3c0.1-0.1,0.2-0.2,0.4-0.3c0.1-0.1,0.3-0.2,0.4-0.4c0.1-0.1,0.2-0.2,0.3-0.3c0.1-0.1,0.3-0.3,0.4-0.4
	c0.1-0.1,0.1-0.1,0.2-0.2c0,0,0.1-0.1,0.1-0.1c0.1-0.1,0.2-0.3,0.3-0.4c0.1-0.1,0.2-0.2,0.3-0.4c0.1-0.1,0.2-0.3,0.3-0.4
	c0.1-0.1,0.2-0.3,0.2-0.4c0.1-0.1,0.2-0.3,0.2-0.4c0.1-0.1,0.1-0.3,0.2-0.4c0.1-0.1,0.1-0.3,0.2-0.5c0.1-0.2,0.1-0.3,0.2-0.5
	c0.1-0.2,0.1-0.3,0.1-0.5c0-0.2,0.1-0.3,0.1-0.5c0-0.2,0.1-0.3,0.1-0.5c0-0.2,0.1-0.3,0.1-0.5c0-0.1,0-0.3,0-0.5c0-0.2,0-0.4,0-0.5
	c0-0.1,0-0.1,0-0.2L369.6,131.2L369.6,131.2z M349.6,409.6l-27-24.2V231.9c0-5.5-4.5-10-10-10s-10,4.5-10,10v153.6l-27,24.2V141.2
	h27v50.6c0,5.5,4.5,10,10,10s10-4.5,10-10v-50.6h27V409.6z M312.6,403.4l20.8,18.6h-41.6L312.6,403.4z M289.1,77.1v44.1h-23.4h-50.5
	V77.1c0-17.6-5.9-33.8-15.9-46.8C208.5,23.8,219.8,20,232,20C263.5,20,289.1,45.6,289.1,77.1z M174.9,121.2V77.1
	c0-12,3.7-23.2,10.1-32.4c6.4,9.2,10.1,20.4,10.1,32.4v44.1H174.9z M80.9,77.1C80.9,45.6,106.5,20,138,20c12.2,0,23.4,3.8,32.7,10.3
	c-9.9,13-15.9,29.2-15.9,46.8v44.1h-74C80.9,121.2,80.9,77.1,80.9,77.1z M20.4,141.2h235.2V422H20.4V141.2z"/>
</svg>
