<?xml version="1.0" encoding="utf-8"?>
<!-- Generator: Adobe Illustrator 21.0.0, SVG Export Plug-In . SVG Version: 6.00 Build 0)  -->
<svg version="1.1" xmlns="http://www.w3.org/2000/svg" xmlns:xlink="http://www.w3.org/1999/xlink" x="0px" y="0px"
	 viewBox="0 0 512 427" style="enable-background:new 0 0 512 427;" xml:space="preserve">
<style type="text/css">
	.st0{fill:#B7E76D;}
</style>
<g>
	<g>
		<path class="st0" d="M461.1,0.4H50.9C22.8,0.4,0,23.3,0,51.3V101c0,5.6,4.6,10.2,10.2,10.2h8.2v281.2c0,19.4,15.8,35.2,35.2,35.2
			h404.9c19.4,0,35.2-15.8,35.2-35.2V111.2h8.2c5.6,0,10.2-4.6,10.2-10.2V51.3C512,23.3,489.2,0.4,461.1,0.4z M473.2,392.4
			c0,8.2-6.6,14.8-14.8,14.8H53.5c-8.2,0-14.8-6.6-14.8-14.8V111.2h434.5V392.4L473.2,392.4z M491.6,90.8H20.4V51.3
			c0-16.8,13.7-30.5,30.5-30.5h410.2c16.8,0,30.5,13.7,30.5,30.5V90.8L491.6,90.8z"/>
	</g>
</g>
<g>
	<g>
		<path class="st0" d="M313,137.9H199c-24.2,0-43.9,19.7-43.9,43.9s19.7,43.9,43.9,43.9h114c24.2,0,44-19.7,44-43.9
			S337.3,137.9,313,137.9z M313,205.4H199c-13,0-23.6-10.6-23.6-23.6s10.6-23.6,23.6-23.6h114c13,0,23.6,10.6,23.6,23.6
			C336.6,194.9,326,205.4,313,205.4z"/>
	</g>
</g>
<g>
	<g>
		<path class="st0" d="M366.2,256.2H145.8c-5.6,0-10.2,4.6-10.2,10.2v102c0,5.6,4.6,10.2,10.2,10.2h220.3c5.6,0,10.2-4.6,10.2-10.2
			v-102C376.4,260.8,371.8,256.2,366.2,256.2z M356,358.2H156v-81.6h200V358.2L356,358.2z"/>
	</g>
</g>
<g>
	<g>
		<path class="st0" d="M321.3,306.2h-6.1c-5.6,0-10.2,4.6-10.2,10.2s4.6,10.2,10.2,10.2h6.1c5.6,0,10.2-4.6,10.2-10.2
			C331.5,310.8,326.9,306.2,321.3,306.2z"/>
	</g>
</g>
<g>
	<g>
		<path class="st0" d="M275.4,306.2h-84.7c-5.6,0-10.2,4.6-10.2,10.2s4.6,10.2,10.2,10.2h84.7c5.6,0,10.2-4.6,10.2-10.2
			C285.6,310.8,281,306.2,275.4,306.2z"/>
	</g>
</g>
</svg>
