<?xml version="1.0" encoding="utf-8"?>
<!-- Generator: Adobe Illustrator 21.0.0, SVG Export Plug-In . SVG Version: 6.00 Build 0)  -->
<svg version="1.1" xmlns="http://www.w3.org/2000/svg" xmlns:xlink="http://www.w3.org/1999/xlink" x="0px" y="0px"
	 viewBox="0 0 512 512" style="enable-background:new 0 0 512 512;" xml:space="preserve">
<style type="text/css">
	.st0{fill:#FFA219;}
</style>
<g>
	<path class="st0" d="M256,429.1c-9.1,0-16.5,7.4-16.5,16.5v49.9c0,9.1,7.4,16.5,16.5,16.5c9.1,0,16.5-7.4,16.5-16.5v-49.9
		C272.5,436.5,265.1,429.1,256,429.1z"/>
	<path class="st0" d="M256,82.9c9.1,0,16.5-7.4,16.5-16.5V16.5C272.5,7.4,265.1,0,256,0c-9.1,0-16.5,7.4-16.5,16.5v49.9
		C239.5,75.5,246.8,82.9,256,82.9z"/>
	<path class="st0" d="M110.3,378.4L75,413.6c-6.5,6.5-6.5,16.9,0,23.4c3.2,3.2,7.5,4.8,11.7,4.8c4.2,0,8.5-1.6,11.7-4.8l35.3-35.3
		c6.5-6.5,6.5-16.9,0-23.4C127.2,371.9,116.7,371.9,110.3,378.4z"/>
	<path class="st0" d="M390.1,138.4c4.2,0,8.5-1.6,11.7-4.8L437,98.3c6.5-6.5,6.5-16.9,0-23.4c-6.5-6.5-16.9-6.5-23.4,0l-35.3,35.3
		c-6.5,6.5-6.5,16.9,0,23.4C381.6,136.8,385.8,138.4,390.1,138.4z"/>
	<path class="st0" d="M82.9,256c0-9.1-7.4-16.5-16.5-16.5H16.5C7.4,239.5,0,246.9,0,256s7.4,16.5,16.5,16.5h49.9
		C75.5,272.5,82.9,265.1,82.9,256z"/>
	<path class="st0" d="M495.5,239.5h-49.9c-9.1,0-16.5,7.4-16.5,16.5s7.4,16.5,16.5,16.5h49.9c9.1,0,16.5-7.4,16.5-16.5
		S504.6,239.5,495.5,239.5z"/>
	<path class="st0" d="M110.2,133.6c3.2,3.2,7.5,4.8,11.7,4.8c4.2,0,8.5-1.6,11.7-4.8c6.5-6.5,6.5-16.9,0-23.4L98.4,75
		c-6.5-6.5-16.9-6.5-23.4,0c-6.5,6.5-6.5,16.9,0,23.4L110.2,133.6z"/>
	<path class="st0" d="M401.8,378.4c-6.5-6.5-16.9-6.5-23.4,0c-6.5,6.5-6.5,16.9,0,23.4l35.3,35.3c3.2,3.2,7.5,4.8,11.7,4.8
		c4.2,0,8.5-1.6,11.7-4.8c6.5-6.5,6.5-16.9,0-23.4L401.8,378.4z"/>
	<path class="st0" d="M256,107.3c-82,0-148.7,66.7-148.7,148.7S174,404.7,256,404.7S404.7,338,404.7,256S338,107.3,256,107.3z
		 M256,371.7c-63.8,0-115.7-51.9-115.7-115.7S192.2,140.3,256,140.3c63.8,0,115.7,51.9,115.7,115.7S319.8,371.7,256,371.7z"/>
</g>
</svg>
