<?xml version="1.0" encoding="utf-8"?>
<!-- Generator: Adobe Illustrator 21.0.0, SVG Export Plug-In . SVG Version: 6.00 Build 0)  -->
<svg version="1.1" xmlns="http://www.w3.org/2000/svg" xmlns:xlink="http://www.w3.org/1999/xlink" x="0px" y="0px"
	 viewBox="0 0 470 339" style="enable-background:new 0 0 470 339;" xml:space="preserve">
<style type="text/css">
	.st0{fill:#B7E76D;}
</style>
<path class="st0" d="M425.7,130.7l24-2.9c11.9-1.4,20.9-11.6,20.9-23.6c0-13.1-10.7-23.8-23.8-23.8h-16.7c-10.2,0-19,6.5-22.3,15.6
	l-23.4-51.3c-8.7-19-26.1-33.2-46.4-37.9c-34.5-7.9-170.7-7.9-205.2,0C112.4,11.5,95,25.6,86.4,44.7L62.9,96
	c-3.4-9.1-12.1-15.6-22.3-15.6H23.8C10.7,80.4,0,91.1,0,104.2c0,12,9,22.2,20.9,23.6l24,2.9l-23,23c-11.2,11.2-16.5,27.2-14.3,42.8
	l7.9,55.4c2,14.2,9.4,26.7,19.9,35.4v25.2c0,15,12.2,27.2,27.2,27.2h45c15,0,27.2-12.2,27.2-27.2v-12.2h201v12.2
	c0,15,12.2,27.2,27.2,27.2h45c15,0,27.2-12.2,27.2-27.2v-25.2c10.5-8.7,17.9-21.1,19.9-35.4l7.9-55.4c2.2-15.6-3.1-31.7-14.3-42.8
	L425.7,130.7z M399.4,282.3H71.2c-18.2,0-33.9-13.1-37.5-30.7h403.2C433.4,269.2,417.6,282.3,399.4,282.3z M341.4,204.3l9.1,29.3
	H338l-9.1-29.3H341.4z M310,204.3l9.1,29.3H151.5l9.1-29.3H310z M132.6,233.6h-12.5l9.1-29.3h12.5L132.6,233.6z M101.3,233.6H31.1
	L27,204.3h83.5L101.3,233.6z M369.4,233.6l-9.1-29.3h83.5l-4.2,29.3H369.4z M424.3,104.2c0-3.2,2.6-5.8,5.8-5.8h16.7
	c3.2,0,5.8,2.6,5.8,5.8c0,2.9-2.2,5.4-5.1,5.7l-23.2,2.8L424.3,104.2L424.3,104.2z M136.7,24.4c31.3-7.2,165.8-7.2,197.2,0
	c7.7,1.8,14.9,5.4,20.8,10.4c-42.9-7.4-196-7.4-238.8,0C121.9,29.8,129,26.2,136.7,24.4z M99.6,58.9c5.6-2.8,11.6-4.9,18-6.1
	c38.5-7.4,197-7.4,235.6,0c6.4,1.2,12.4,3.3,17.9,6.1l27.8,60.9H71.8L99.6,58.9z M18,104.2c0-3.2,2.6-5.8,5.8-5.8h16.7
	c3.2,0,5.8,2.6,5.8,5.8v8.6L23.1,110C20.2,109.6,18,107.1,18,104.2z M63.4,137.8h343.9l28.6,28.6c5.3,5.3,8.6,12.4,9.4,19.8H25.4
	c0.7-7.4,4-14.5,9.4-19.8L63.4,137.8z M116.8,312.5c0,5.1-4.1,9.2-9.2,9.2h-45c-5.1,0-9.2-4.1-9.2-9.2v-15.1
	c5.6,1.9,11.6,2.9,17.7,2.9h45.6L116.8,312.5L116.8,312.5z M417.2,312.5c0,5.1-4.1,9.2-9.2,9.2h-45c-5.1,0-9.2-4.1-9.2-9.2v-12.2
	h45.6c6.2,0,12.1-1,17.7-2.9L417.2,312.5L417.2,312.5z"/>
</svg>
