<?xml version="1.0" encoding="utf-8"?>
<!-- Generator: Adobe Illustrator 21.0.0, SVG Export Plug-In . SVG Version: 6.00 Build 0)  -->
<svg version="1.1" xmlns="http://www.w3.org/2000/svg" xmlns:xlink="http://www.w3.org/1999/xlink" x="0px" y="0px"
	 viewBox="0 0 442.3 442.3" style="enable-background:new 0 0 442.3 442.3;" xml:space="preserve">
<style type="text/css">
	.st0{fill:#303030;}
</style>
<g>
	<g id="Layer_3_29_">
		<path class="st0" d="M364.3,292.6l-23.4-13.5l54.6-18.9l-6.3-18.3l-70.4,24.4l-20.5-11.9l0.5-1.2c4.2-10.2,6.4-21,6.4-32.1
			s-2.1-21.9-6.4-32.1l-0.5-1.2l20.5-11.9l70.4,24.4l6.3-18.3l-54.6-18.9l23.4-13.5l49.7,17.3l6.3-18.3l-33.9-11.8l31.1-17.9
			l-9.7-16.7l-31.1,17.9l6.8-35.3l-19-3.6l-9.9,51.7l-23.4,13.5l10.9-56.8l-19-3.6l-14.1,73.2l-20.6,11.9l-0.8-1
			c-13.7-17.8-33.4-29.2-55.6-32.1l-1.3-0.2v-23.7l56.3-48.8l-12.6-14.6l-43.7,37.8V61.4L270.6,27L258,12.4l-27.2,23.5V0h-19.3v35.9
			l-27.2-23.5L171.7,27l39.8,34.5v27.1l-43.7-37.8l-12.6,14.6l56.3,48.8v23.7l-1.3,0.2c-22.1,2.9-41.9,14.3-55.6,32.1l-0.8,1
			l-20.6-11.9l-14.1-73.2l-19,3.6l10.9,56.8l-23.4-13.5l-9.9-51.7l-19,3.6l6.8,35.3l-31.1-17.9l-9.7,16.7l31.1,17.9l-33.9,11.8
			l6.3,18.3L78,149.7l23.4,13.5l-54.6,18.9l6.3,18.3l70.4-24.4l20.5,11.9l-0.5,1.2c-4.2,10.2-6.4,21-6.4,32.1s2.1,21.9,6.4,32.1
			l0.5,1.2l-20.5,11.9l-70.4-24.4l-6.3,18.3l54.6,18.9L78,292.6l-49.7-17.3l-6.3,18.3l33.9,11.8l-31.1,17.9l9.7,16.7l31.1-17.9
			l-6.8,35.3l19,3.6l9.9-51.7l23.4-13.5l-10.9,56.8l19,3.6l14.1-73.2l20.6-11.9l0.8,1c13.7,17.8,33.4,29.2,55.6,32.1l1.3,0.2v23.7
			L155.1,377l12.6,14.6l43.7-37.8v27.1l-39.8,34.5l12.6,14.6l27.2-23.5v35.9h19.3v-35.9L258,430l12.6-14.6l-39.8-34.5v-27.1
			l43.7,37.8l12.6-14.6l-56.4-48.8v-23.7l1.3-0.2c22.1-2.9,41.9-14.3,55.6-32.1l0.8-1l20.6,11.9l14.1,73.2l19-3.6l-10.9-56.8
			l23.4,13.5l9.9,51.7l19-3.6l-6.8-35.3l31.1,17.9l9.7-16.7l-31.1-17.9l33.9-11.8l-6.3-18.3L364.3,292.6z M221.2,285.7
			c-35.6,0-64.6-29-64.6-64.6s29-64.6,64.6-64.6s64.6,29,64.6,64.6S256.8,285.7,221.2,285.7z"/>
	</g>
</g>
</svg>
