<?xml version="1.0" encoding="utf-8"?>
<!-- Generator: Adobe Illustrator 21.0.0, SVG Export Plug-In . SVG Version: 6.00 Build 0)  -->
<svg version="1.1" xmlns="http://www.w3.org/2000/svg" xmlns:xlink="http://www.w3.org/1999/xlink" x="0px" y="0px"
	 viewBox="0 0 422.7 422.7" style="enable-background:new 0 0 422.7 422.7;" xml:space="preserve">
<style type="text/css">
	.st0{fill:#B7E76D;}
</style>
<g>
	<g>
		<path class="st0" d="M211.3,0C94.8,0,0,94.8,0,211.3c0,116.5,94.8,211.3,211.3,211.3c116.5,0,211.3-94.8,211.3-211.3
			C422.7,94.8,327.9,0,211.3,0z M211.3,406.4c-107.6,0-195.1-87.5-195.1-195.1S103.8,16.3,211.3,16.3s195.1,87.5,195.1,195.1
			S318.9,406.4,211.3,406.4z"/>
	</g>
</g>
<path class="st0" d="M213.8,99.6c0-4.1-3.4-7.5-7.5-7.5c-4.1,0-7.5,3.4-7.5,7.5v112.2c0,4.1,3.4,7.5,7.5,7.5h115.2
	c4.1,0,7.5-3.4,7.5-7.5s-3.4-7.5-7.5-7.5H213.8V99.6z"/>
</svg>
