<?xml version="1.0" encoding="utf-8"?>
<!-- Generator: Adobe Illustrator 21.0.0, SVG Export Plug-In . SVG Version: 6.00 Build 0)  -->
<svg version="1.1" xmlns="http://www.w3.org/2000/svg" xmlns:xlink="http://www.w3.org/1999/xlink" x="0px" y="0px"
	 viewBox="0 0 32 128" style="enable-background:new 0 0 32 128;" xml:space="preserve">
<style type="text/css">
	.st0{fill:#FFFFFF;}
</style>
<g>
	<path class="st0" d="M16,4.7c-2.1,0-4,0.5-5.7,1.5s-3.1,2.4-4.1,4.1S4.7,13.9,4.7,16s0.5,4,1.5,5.7c1,1.7,2.4,3.1,4.1,4.1
		s3.6,1.5,5.7,1.5s4-0.5,5.7-1.5c1.7-1,3.1-2.4,4.1-4.1c1-1.7,1.5-3.6,1.5-5.7s-0.5-4-1.5-5.7s-2.4-3.1-4.1-4.1
		C20,5.2,18.1,4.7,16,4.7z M32,16c0,2.9-0.7,5.6-2.1,8s-3.4,4.4-5.8,5.8S18.9,32,16,32s-5.6-0.7-8-2.1S3.6,26.5,2.1,24S0,18.9,0,16
		s0.7-5.6,2.1-8S5.5,3.6,8,2.1S13.1,0,16,0s5.6,0.7,8,2.1s4.4,3.4,5.8,5.8S32,13.1,32,16z"/>
	<path class="st0" d="M16,7c-1.6,0-3.2,0.4-4.5,1.2S9,10.1,8.1,11.5c-0.8,1.4-1.2,2.9-1.2,4.5s0.4,3.2,1.2,4.5
		c0.8,1.4,1.9,2.5,3.3,3.3c1.4,0.8,2.9,1.2,4.5,1.2c1.6,0,3.2-0.4,4.5-1.2c1.4-0.8,2.5-1.9,3.3-3.3S25,17.7,25,16s-0.4-3.2-1.2-4.5
		S21.9,9,20.5,8.2S17.6,7,16,7z M28.8,16c0,2.3-0.6,4.5-1.7,6.4s-2.7,3.5-4.6,4.6c-2,1.1-4.1,1.7-6.4,1.7s-4.5-0.6-6.4-1.7
		c-2-1.1-3.5-2.7-4.6-4.6S3.2,18.3,3.2,16s0.6-4.5,1.7-6.4S7.6,6.1,9.6,5s4.1-1.7,6.4-1.7s4.5,0.6,6.4,1.7s3.5,2.7,4.6,4.6
		S28.8,13.7,28.8,16z"/>
</g>
<g>
	<path class="st0" d="M16,53.7c-2.1,0-4,0.5-5.7,1.5c-1.7,1-3.1,2.4-4.1,4.1S4.7,62.9,4.7,65c0,2.1,0.5,4,1.5,5.7
		c1,1.7,2.4,3.1,4.1,4.1s3.6,1.5,5.7,1.5s4-0.5,5.7-1.5c1.7-1,3.1-2.4,4.1-4.1c1-1.7,1.5-3.6,1.5-5.7c0-2.1-0.5-4-1.5-5.7
		s-2.4-3.1-4.1-4.1C20,54.2,18.1,53.7,16,53.7z M32,65c0,2.9-0.7,5.6-2.1,8s-3.4,4.4-5.8,5.8S18.9,81,16,81s-5.6-0.7-8-2.1
		S3.6,75.5,2.1,73S0,67.9,0,65c0-2.9,0.7-5.6,2.1-8c1.4-2.5,3.4-4.4,5.8-5.8c2.5-1.4,5.1-2.1,8-2.1s5.6,0.7,8,2.1
		c2.5,1.4,4.4,3.4,5.8,5.8C31.3,59.4,32,62.1,32,65z"/>
	<path class="st0" d="M16,56c-1.6,0-3.2,0.4-4.5,1.2S9,59.1,8.1,60.5c-0.8,1.4-1.2,2.9-1.2,4.5c0,1.6,0.4,3.2,1.2,4.5
		c0.8,1.4,1.9,2.5,3.3,3.3c1.4,0.8,2.9,1.2,4.5,1.2c1.6,0,3.2-0.4,4.5-1.2c1.4-0.8,2.5-1.9,3.3-3.3c0.8-1.4,1.2-2.9,1.2-4.5
		c0-1.6-0.4-3.2-1.2-4.5s-1.9-2.5-3.3-3.3S17.6,56,16,56z M28.8,65c0,2.3-0.6,4.5-1.7,6.4s-2.7,3.5-4.6,4.6s-4.1,1.7-6.4,1.7
		s-4.5-0.6-6.4-1.7s-3.5-2.7-4.6-4.6S3.2,67.3,3.2,65c0-2.3,0.6-4.5,1.7-6.4s2.7-3.5,4.6-4.6c2-1.1,4.1-1.7,6.4-1.7s4.5,0.6,6.4,1.7
		c2,1.1,3.5,2.7,4.6,4.6S28.8,62.7,28.8,65z"/>
</g>
<g>
	<path class="st0" d="M16,100.7c-2.1,0-4,0.5-5.7,1.5s-3.1,2.4-4.1,4.1c-1,1.7-1.5,3.6-1.5,5.7s0.5,4,1.5,5.7c1,1.7,2.4,3.1,4.1,4.1
		s3.6,1.5,5.7,1.5s4-0.5,5.7-1.5c1.7-1,3.1-2.4,4.1-4.1c1-1.7,1.5-3.6,1.5-5.7s-0.5-4-1.5-5.7c-1-1.7-2.4-3.1-4.1-4.1
		C20,101.2,18.1,100.7,16,100.7z M32,112c0,2.9-0.7,5.6-2.1,8s-3.4,4.4-5.8,5.8s-5.1,2.1-8,2.1s-5.6-0.7-8-2.1s-4.4-3.4-5.8-5.8
		S0,114.9,0,112s0.7-5.6,2.1-8s3.4-4.4,5.8-5.8s5.1-2.1,8-2.1s5.6,0.7,8,2.1s4.4,3.4,5.8,5.8S32,109.1,32,112z"/>
	<path class="st0" d="M16,103c-1.6,0-3.2,0.4-4.5,1.2s-2.5,1.9-3.3,3.3c-0.8,1.4-1.2,2.9-1.2,4.5c0,1.6,0.4,3.2,1.2,4.5
		c0.8,1.4,1.9,2.5,3.3,3.3c1.4,0.8,2.9,1.2,4.5,1.2c1.6,0,3.2-0.4,4.5-1.2c1.4-0.8,2.5-1.9,3.3-3.3c0.8-1.4,1.2-2.9,1.2-4.5
		c0-1.6-0.4-3.2-1.2-4.5s-1.9-2.5-3.3-3.3S17.6,103,16,103z M28.8,112c0,2.3-0.6,4.5-1.7,6.4s-2.7,3.5-4.6,4.6s-4.1,1.7-6.4,1.7
		s-4.5-0.6-6.4-1.7s-3.5-2.7-4.6-4.6s-1.7-4.1-1.7-6.4c0-2.3,0.6-4.5,1.7-6.4s2.7-3.5,4.6-4.6s4.1-1.7,6.4-1.7s4.5,0.6,6.4,1.7
		s3.5,2.7,4.6,4.6S28.8,109.7,28.8,112z"/>
</g>
</svg>
