<?xml version="1.0" encoding="iso-8859-1"?>
<!-- Generator: Adobe Illustrator 19.0.0, SVG Export Plug-In . SVG Version: 6.00 Build 0)  -->
<svg version="1.1" xmlns="http://www.w3.org/2000/svg" xmlns:xlink="http://www.w3.org/1999/xlink" x="0px" y="0px"
	 viewBox="0 0 485 485" style="enable-background:new 0 0 485 485;" xml:space="preserve">
  <style type="text/css">
	.st0{fill:#606060;}
  </style>
  <g>
    <g>
      <path class="st0" d="M245,0C109.5,0,0,109.5,0,245s109.5,245,245,245s245-109.5,245-245S380.5,0,245,0z M245,469.1    c-124.1,0-224.1-100-224.1-224.1S120.9,20.9,245,20.9s224.1,100,224.1,224.1S369.1,469.1,245,469.1z"/>
      <path class="st0" d="M245,56.3C140.7,56.3,56.3,140.7,56.3,245S140.7,433.7,245,433.7S433.7,349.3,433.7,245S349.3,56.3,245,56.3z M245,412.9    c-92.8,0-167.9-75.1-167.9-167.9S152.2,77.1,245,77.1S412.9,152.2,412.9,245S337.8,412.9,245,412.9z"/>
      <path class="st0" d="m312.6,247.1c-11.5-9.3-29.2-16.6-54.2-22.9h-1v-59.4c16.7,2.1 31.3,8.4 45.9,18.8l20.9-29.2c-20.8-14.6-42.7-21.9-66.7-24v-16.7h-20.9v15.6c-19.8,1.1-37.5,7.3-50,18.8-13.5,11.4-19.8,26-19.8,44.8s5.2,32.3 16.7,41.7c11.5,9.3 29.2,16.6 53.2,22.9v62.6c-18.8-3.1-37.6-12.5-55.3-28.1l-22.9,28.1c23.9,19.8 50,31.3 79.2,34.4v22.9h20.7v-22.9c21.9-1.1 38.5-7.3 52.1-18.8 13.5-11.5 19.8-27.2 19.8-45.9s-6.2-33.3-17.7-42.7zm-74.8-29.2c-11.5-4.2-19.8-8.3-24-12.5s-6.3-9.4-6.3-16.7c0-7.3 3.1-12.5 8.3-17.7s12.5-7.3 22-8.4v55.3zm44.7,93.8c-5.2,4.2-13.5,7.3-24,8.3v-57.3c12.5,4.2 20.9,8.3 26.1,12.5 5.2,4.1 7.3,10.4 7.3,17.7s-3.1,13.6-9.4,18.8z"/>
    </g>
  </g>
</svg>
