<?xml version="1.0" encoding="utf-8"?>
<!-- Generator: Adobe Illustrator 21.0.0, SVG Export Plug-In . SVG Version: 6.00 Build 0)  -->
<svg version="1.1" xmlns="http://www.w3.org/2000/svg" xmlns:xlink="http://www.w3.org/1999/xlink" x="0px" y="0px"
	 viewBox="0 0 455 434.3" style="enable-background:new 0 0 455 434.3;" xml:space="preserve">
<style type="text/css">
	.st0{fill:#606060;}
</style>
<path class="st0" d="M326.6,0c-38.7,0-75,17.5-99.1,46.9C203.4,17.5,167.1,0,128.4,0C57.6,0,0,57.6,0,128.4
	c0,55.4,33,119.5,98.2,190.5c50.2,54.6,104.7,97,120.3,108.6l9,6.8l9-6.8c15.5-11.7,70.1-54,120.3-108.6
	c65.2-71,98.2-135.1,98.2-190.5C455,57.6,397.4,0,326.6,0z M334.7,298.6c-41.3,44.9-85.6,81.3-107.2,98
	c-21.5-16.7-65.9-53.1-107.2-98C61.2,234.2,30,175.4,30,128.4C30,74.1,74.1,30,128.4,30c35.7,0,68.7,19.5,86,50.8l13.1,23.7
	l13.1-23.7C258,49.5,290.9,30,326.6,30c54.2,0,98.4,44.1,98.4,98.4C425,175.4,393.8,234.2,334.7,298.6z"/>
</svg>
