<?xml version="1.0" encoding="utf-8"?>
<!-- Generator: Adobe Illustrator 21.0.0, SVG Export Plug-In . SVG Version: 6.00 Build 0)  -->
<svg version="1.1" xmlns="http://www.w3.org/2000/svg" xmlns:xlink="http://www.w3.org/1999/xlink" x="0px" y="0px"
	 viewBox="0 0 485 485" style="enable-background:new 0 0 485 485;" xml:space="preserve">
<g>
	<path d="M177.5,400c70.8,0,107.8-39,107.8-77.6c0-28.5-16.7-42.6-34.5-57.6l-15-11.6c-4.6-3.8-10.4-8.6-10.4-17.5
		c0-8.7,5.8-14.4,10.9-19.5l0.5-0.5c16.2-12.7,34.5-27.2,34.5-58.4c0-31.4-19.6-47.7-29.1-55.5h24.9c0.3,0,0.6-0.1,0.9-0.3L289.6,88
		c0.6-0.4,0.9-1.1,0.7-1.8c-0.2-0.7-0.8-1.2-1.6-1.2h-75.1c-33.5,0-56.6,7.3-77.5,24.6c-16.4,14.2-26.2,34.7-26.2,55
		c0,31.3,23.8,64.5,68,64.5c4.3,0,9-0.4,13.1-0.8l-0.6,1.5c-1.8,4.3-3.5,8.3-3.5,14.5c0,12.2,5.9,19.7,11.6,27l0.7,0.9l-1.3,0.1
		c-18.3,1.2-52.2,3.6-77,18.8c-29.3,17.4-31.6,42.8-31.6,50.1C89.4,370.5,116.6,400,177.5,400z M197.2,217.6
		c-36.2,0-51.2-47.6-51.2-73.1c0-13,2.9-22.9,9-30.4c6.6-8.2,17.9-13.6,28.7-13.6c33.2,0,51.6,44.7,51.6,75.6c0,4.9,0,19.7-10.2,30
		C218.2,213,207,217.6,197.2,217.6z M160.7,290.3c18.7-6.3,42.8-6.6,43.1-6.6c4.1,0,6.1,0,9.4,0.4c30.2,21.5,44.7,32.8,44.7,54.3
		c0,27.4-23.1,44.4-60.3,44.4c-43.1,0-72.1-20.1-72.1-50.1C125.5,313,137.3,298.8,160.7,290.3z"/>
	<path d="M294.8,252.6h39.4v39.7c0,0.9,0.7,1.6,1.6,1.6h17c0.9,0,1.6-0.7,1.6-1.6v-39.7H394c0.9,0,1.6-0.7,1.6-1.6v-17.3
		c0-0.9-0.7-1.6-1.6-1.6h-39.6v-39.5c0-0.9-0.7-1.6-1.6-1.6h-17c-0.9,0-1.6,0.7-1.6,1.6v39.5h-39.4c-0.9,0-1.6,0.7-1.6,1.6V251
		C293.1,251.9,293.8,252.6,294.8,252.6z"/>
	<path d="M0,0v485h485V0H0z M455,455H30V30h425V455z"/>
</g>
</svg>
