<?xml version="1.0" encoding="utf-8"?>
<!-- Generator: Adobe Illustrator 21.0.0, SVG Export Plug-In . SVG Version: 6.00 Build 0)  -->
<svg version="1.1" xmlns="http://www.w3.org/2000/svg" xmlns:xlink="http://www.w3.org/1999/xlink" x="0px" y="0px"
	 viewBox="0 0 46.3 29" style="enable-background:new 0 0 46.3 29;" xml:space="preserve">
<style type="text/css">
	.st0{fill:#606060;}
</style>
<g>
	<g>
		<path class="st0" d="M32.3,9.7H14c-0.4,0-0.7,0.3-0.7,0.7s0.3,0.7,0.7,0.7h18.3c0.4,0,0.7-0.3,0.7-0.7S32.7,9.7,32.3,9.7L32.3,9.7
			z"/>
		<path class="st0" d="M6.4,13H3.7C3.3,13,3,13.3,3,13.7s0.3,0.7,0.7,0.7h2.7c1.3,0,2.5,0.9,2.8,2.2H3.9c-0.4,0-0.7,0.3-0.7,0.7
			S3.5,18,3.9,18H10c0.4,0,0.7-0.3,0.7-0.7C10.7,14.9,8.8,13,6.4,13z"/>
		<path class="st0" d="M39.9,14.5h2.7c0.4,0,0.7-0.3,0.7-0.7S43,13,42.6,13h-2.7c-2.4,0-4.3,2-4.3,4.3c0,0.4,0.3,0.7,0.7,0.7h6.1
			c0.4,0,0.7-0.3,0.7-0.7c0-0.4-0.3-0.7-0.7-0.7h-5.3C37.4,15.4,38.6,14.5,39.9,14.5z"/>
		<path class="st0" d="M44.8,9.8c-1-1.1-2.4-1.7-3.9-1.7c-0.1,0-0.1,0-0.2,0l-2.4,0.7l-3.5-6.7C34.2,0.9,32.7,0,31.3,0H14.9
			c-1.3,0-2.9,0.9-3.5,2.1L8,8.8L5.6,8.1c-0.1,0-0.1,0-0.2,0c-1.5,0-2.9,0.6-3.9,1.7s-1.6,2.5-1.5,4l0.5,10.6c0,0.4,0.3,0.7,0.7,0.7
			h0.2v3.2c0,0.4,0.3,0.7,0.7,0.7h7.7c0.4,0,0.7-0.3,0.7-0.7v-1c0-0.4-0.3-0.7-0.7-0.7s-0.7,0.3-0.7,0.7v0.3H2.9v-2.5h40.3v2.5H37
			v-0.3c0-0.4-0.3-0.7-0.7-0.7s-0.7,0.3-0.7,0.7v1c0,0.4,0.3,0.7,0.7,0.7H44c0.4,0,0.7-0.3,0.7-0.7v-3.2h0.2c0.4,0,0.7-0.3,0.7-0.7
			l0.5-10.6C46.3,12.3,45.8,10.8,44.8,9.8L44.8,9.8z M44.8,13.7l-0.5,9.9L2,23.6l-0.5-9.9c0-1.1,0.3-2.1,1.1-2.9
			C3.3,10,4.3,9.6,5.3,9.6l2.8,0.8l0,0l2.7,0.8c0.4,0.1,0.8-0.1,0.9-0.5c0.1-0.4-0.1-0.8-0.5-0.9L9.4,9.2l3.3-6.4
			c0.4-0.7,1.4-1.3,2.2-1.3h16.4c0.8,0,1.8,0.6,2.2,1.3l3.3,6.4L35,9.7c-0.4,0.1-0.6,0.5-0.5,0.9s0.5,0.6,0.9,0.5L41,9.6
			c1.1,0,2,0.5,2.8,1.2C44.5,11.6,44.9,12.6,44.8,13.7z"/>
		<path class="st0" d="M40.9,6.6h2.6c0.4,0,0.7-0.3,0.7-0.7c0-0.4-0.3-0.7-0.7-0.7h-2.6c-0.4,0-0.7,0.3-0.7,0.7S40.5,6.6,40.9,6.6z"
			/>
		<path class="st0" d="M2.9,6.6h2.6c0.4,0,0.7-0.3,0.7-0.7S5.8,5.2,5.4,5.2H2.8c-0.4,0-0.7,0.3-0.7,0.7S2.5,6.6,2.9,6.6z"/>
		<path class="st0" d="M31.3,18.7H15.1c-0.4,0-0.7,0.3-0.7,0.7v2c0,0.4,0.3,0.7,0.7,0.7s0.7-0.3,0.7-0.7v-1.2h14.8v1.2
			c0,0.4,0.3,0.7,0.7,0.7c0.4,0,0.7-0.3,0.7-0.7v-2C32,19,31.7,18.7,31.3,18.7z"/>
		<path class="st0" d="M27.2,15c0.4,0,0.7-0.3,0.7-0.7s-0.3-0.7-0.7-0.7h-8.1c-0.4,0-0.7,0.3-0.7,0.7s0.3,0.7,0.7,0.7H27.2z"/>
	</g>
</g>
</svg>
