<?xml version="1.0" encoding="utf-8"?>
<!-- Generator: Adobe Illustrator 21.0.0, SVG Export Plug-In . SVG Version: 6.00 Build 0)  -->
<svg version="1.1" xmlns="http://www.w3.org/2000/svg" xmlns:xlink="http://www.w3.org/1999/xlink" x="0px" y="0px"
	 viewBox="0 0 188 203" style="enable-background:new 0 0 188 203;" xml:space="preserve">
<style type="text/css">
	.st0{fill:#B7E76D;}
</style>
<path class="st0" d="M185.5,202.7H3.2c-1.7,0-3-1.3-3-3v-34.8c0-13.5,8.1-25.4,20.6-30.4l43.1-17.3c0.8-0.3,1.6-0.3,2.3,0
	c0.7,0.3,1.3,1,1.6,1.7l12.7,35.1l4.2-12l-3.7-9c-0.4-0.9-0.3-2,0.3-2.8c0.6-0.8,1.5-1.3,2.5-1.3h21.1c1,0,1.9,0.5,2.5,1.3
	s0.7,1.9,0.3,2.8l-3.7,9l4.2,12l12.7-35.1c0.3-0.8,0.9-1.4,1.6-1.7c0.7-0.3,1.6-0.3,2.3,0l43.1,17.2c12.5,5,20.6,16.9,20.6,30.4
	v34.8C188.5,201.4,187.1,202.7,185.5,202.7z M6.2,196.7h176.3v-31.8c0-11-6.6-20.8-16.8-24.8L125.4,124l-14.5,40.1
	c-0.4,1.2-1.6,2-2.8,2c-1.3,0-2.4-0.8-2.8-2L97.9,143c-0.2-0.7-0.2-1.4,0.1-2.1l2.4-5.9H88.3l2.4,5.9c0.3,0.7,0.3,1.4,0.1,2.1
	l-7.3,21.1c-0.4,1.2-1.5,2-2.8,2c-1.3,0-2.4-0.8-2.8-2L63.3,124L23,140.1c-10.2,4.1-16.8,13.8-16.8,24.8
	C6.2,164.9,6.2,196.7,6.2,196.7z M162.5,189.6h-33.6c-1.7,0-3-1.3-3-3v-20.7c0-1.7,1.3-3,3-3h33.6c1.7,0,3,1.3,3,3v20.7
	C165.5,188.2,164.1,189.6,162.5,189.6z M131.9,183.6h27.6v-14.7h-27.6V183.6z M94.4,116.5c-4.6,0-9.2-0.9-13.5-2.6
	c-3.3-1.3-6.1-3-8.1-4.9c-5.8-5.4-11.7-16.9-14-21.4c-3.7-0.2-11.4-2.2-14.8-14.9c-1.7-6.3-1.3-11.4,1.1-15.1c1.3-2,3-3.2,4.3-3.9
	c0-1.6,0-3.9,0.3-6.6C47.6,44,43,34.4,50.9,20.3c0,0,0,0,0,0c0,0,0,0,0,0c0,0,0,0,0,0c0,0,0-0.1,0-0.1l0,0c0,0,0,0,0,0c0,0,0,0,0,0
	c0,0,0,0,0,0c5.2-9.1,11.9-11,16.6-11c0,0,0,0,0,0l0,0c0,0,0,0,0,0h0c0,0,0,0,0,0s0,0,0,0l0,0l0,0h0c1.2,0,2.2,0.1,3.1,0.3
	c2.2-3.8,8.2-9.4,25-9.4c0,0,0,0,0,0l0,0l0,0h0c0,0,0,0,0,0l0.8,0c0,0,0,0,0,0h0c0,0,0,0,0,0c11.1,0.1,20,4.2,25.5,7.6
	c10.5,5.1,16.9,15.9,18.5,21.4c0.7,2.4,1,5.3,1,8.4c0,0,0,0,0,0l0,0l0,0c0,0,0,0,0,0c0,0,0,0,0,0l0,0l0,0c0,0,0,0,0,0c0,0,0,0,0,0
	l0,0l0,0c0,0,0,0,0,0c0,0,0,0,0,0l0,0l0,0c0,0,0,0,0,0c0,0,0,0,0,0c0,7.2-1.9,14.1-2.4,15.9c0,0.1,0,0.2,0,0.3
	c1.4,0.7,3,1.9,4.3,3.9c2.4,3.7,2.8,8.8,1.1,15.1c-3.3,12.7-11,14.7-14.8,14.9c-2.2,4.5-8.2,16-14,21.4c-2.1,1.9-4.8,3.6-8.1,4.9
	C103.5,115.7,99,116.5,94.4,116.5z M60.6,81.6c1.2,0,2.3,0.7,2.8,1.7c0.1,0.2,7.3,15.5,13.5,21.3c1.5,1.4,3.6,2.7,6.3,3.7
	c3.6,1.4,7.4,2.1,11.2,2.1s7.7-0.7,11.2-2.1c2.6-1,4.7-2.3,6.3-3.7c6.2-5.8,13.4-21.2,13.5-21.3c0.6-1.3,2-1.9,3.3-1.7c0,0,0,0,0,0
	c0,0,0.3,0,0.6,0c2.6,0,7.2-1.4,9.6-10.4c1.2-4.5,1.1-8-0.3-10.2c-1.1-1.9-2.9-2.2-3-2.3c-1.5-0.3-2.6-1.6-2.4-3.2
	c0,0,0.1-0.9,0.1-2.5c-0.1-0.8-0.5-3.4-1.7-4.6c-1.5-1.2-10.9-3-19.9-4.8c-3.8-0.7-8.1-1.6-12.6-2.5c0,0,0,0,0,0
	c-3-0.5-5.5-1.3-7.6-2.2c-7.6-2.8-12.9-6.9-16.1-9.9c-1.1,3.2-3,7.1-5.8,10.1c-4.9,5.3-10.8,8.1-13.8,9.3c-0.3,4.2-0.1,7-0.1,7
	c0.1,1.6-1,3-2.5,3.2c0,0-1.8,0.4-2.9,2.2c-1.4,2.2-1.5,5.7-0.3,10.2c2.4,9.1,7,10.4,9.6,10.4c0.4,0,0.7,0,0.7,0
	C60.3,81.6,60.4,81.6,60.6,81.6z M73.9,20.1c1,0,1.9,0.5,2.5,1.3c0,0.1,5.3,7.8,17.1,12.1c0.1,0,0.1,0,0.2,0.1
	c1.7,0.7,3.8,1.3,6.4,1.8c0,0,0.1,0,0.1,0c4.5,0.9,8.8,1.7,12.6,2.5c13.6,2.6,19.8,3.9,22.4,5.9c0.3-2,0.5-4.1,0.5-6.3h0h0l0,0h0h0
	c0,0,0,0,0,0l0,0l0,0l0,0l0,0l0,0l0,0l0,0l0,0l0,0c0,0,0,0,0,0l0,0l0,0l0,0c0,0,0,0,0,0l0,0l0,0l0,0l0,0l0,0c0,0,0,0,0,0
	c0,0,0,0,0,0l0,0l0,0l0,0c0,0,0,0,0,0l0,0l0,0l0,0l0,0l0,0c0,0,0,0,0,0l0,0l0,0l0,0l0,0l0,0l0,0l0,0c0,0,0,0,0,0l0,0l0,0l0,0l0,0
	l0,0l0,0l0,0l0,0l0,0c0,0,0,0,0,0c0,0,0,0,0,0l0,0c0,0,0,0,0,0c0-2.4-0.2-4.6-0.7-6.4c0-0.1-0.1-0.3-0.1-0.4
	c-0.1-0.3-0.2-0.5-0.3-0.8c-1.7-4.9-7.4-13.1-15.1-16.9c-0.1-0.1-0.2-0.1-0.4-0.2c-4.9-3-12.7-6.7-22.5-6.8c0,0,0,0,0,0l-0.8,0l0,0
	l0,0c-0.5,0-0.9,0-1.4,0l0,0c0,0,0,0,0,0c-16.8,0.4-18.8,7.1-18.8,7.5c0,0.1,0,0.2,0,0.2c-0.1,0.4-0.3,0.8-0.6,1.2
	c-0.2,0.3-0.4,0.5-0.7,0.7c-0.4,0.3-0.9,0.4-1.5,0.5c-0.3,0-0.6,0-1-0.1c-0.1,0-0.3-0.1-0.4-0.2c-0.2-0.1-1.7-0.6-3.7-0.6l0,0h0l0,0
	c0,0,0,0,0,0c-4.6,0-8.4,2.7-11.4,8c0,0,0,0,0,0c0,0,0,0,0,0c0,0,0,0,0,0c0,0,0,0,0,0c0,0,0,0,0,0c0,0,0,0,0,0l0,0
	c-5.5,9.8-3.6,16.5-2.1,19.5c2.6-1.1,7.2-3.4,11-7.5c3.5-3.8,5.4-10.5,5.9-12.7c0.2-1.2,1.2-2.1,2.4-2.4
	C73.5,20.1,73.7,20.1,73.9,20.1z"/>
</svg>
