<?xml version="1.0" encoding="utf-8"?>
<!-- Generator: Adobe Illustrator 21.0.0, SVG Export Plug-In . SVG Version: 6.00 Build 0)  -->
<svg version="1.1" xmlns="http://www.w3.org/2000/svg" xmlns:xlink="http://www.w3.org/1999/xlink" x="0px" y="0px"
	 viewBox="0 0 488 512" style="enable-background:new 0 0 488 512;" xml:space="preserve">
<style type="text/css">
	.st0{fill:#B7E76D;}
</style>
<g>
	<g>
		<path class="st0" d="M145.5,11.3C138.8,4.1,129.2,0,119.4,0H95.8c-9.9,0-19.4,4.1-26.1,11.3s-10.2,17-9.6,26.8l1,16.1l2.4,37.5
			c1,15.1,9.5,28.5,22.8,35.8c6.7,3.7,14,5.5,21.3,5.5s14.6-1.8,21.3-5.5c13.3-7.3,21.8-20.7,22.8-35.8l2.8-42.9l0.7-10.7
			C155.8,28.3,152.3,18.5,145.5,11.3z M80.4,36.8c-0.3-4.3,1.2-8.4,4.1-11.5s6.9-4.9,11.3-4.9h16.3l-2.9,7.8
			c-1.5,2.1-8.7,10.8-28.4,14.1L80.4,36.8z M131.3,90.4c-0.5,8.1-5.1,15.3-12.2,19.3c-7.2,3.9-15.7,3.9-22.9,0
			c-7.1-3.9-11.7-11.1-12.2-19.3l-1.8-27.7C99,60.2,110,54.5,117,49.1c1.2,0.9,2.6,1.7,4.1,2.5c2.9,1.5,7,3,12.5,4.5L131.3,90.4z
			 M130.4,33.4c-0.5-0.2-0.8-0.4-1.2-0.6l2.4-6.4c2,2.5,3.1,5.5,3.2,8.7C132.3,34.3,131,33.7,130.4,33.4z"/>
	</g>
</g>
<g>
	<g>
		<path class="st0" d="M215,214.9l-3.9-21.6l0,0c-4.9-26.8-26.1-48.2-52.8-53.2c-4-0.8-8.2-1.1-12.3-1.1h-11.8c-2.7,0-5.3,1.1-7.2,3
			l-19.4,19.4L88.1,142c-1.9-1.9-4.5-3-7.2-3H69.2c-4.1,0-8.2,0.4-12.3,1.1c-26.7,5-47.9,26.4-52.8,53.2l-3.9,21.6
			c-0.5,3,0.3,6,2.2,8.4c1.9,2.3,4.8,3.7,7.8,3.7h194.7c3,0,5.9-1.3,7.8-3.7C214.7,220.9,215.5,217.8,215,214.9z M22.5,206.5
			l1.7-9.5c3.4-18.5,18-33.3,36.5-36.8c2.8-0.5,5.6-0.8,8.5-0.8h7.5l23.7,23.7c4,4,10.4,4,14.4,0l23.7-23.7h7.5
			c2.8,0,5.7,0.3,8.5,0.8c18.5,3.5,33.1,18.3,36.5,36.8l1.7,9.5H22.5L22.5,206.5z"/>
	</g>
</g>
<g>
	<g>
		<path class="st0" d="M418.3,296.5c-6.7-7.2-16.3-11.3-26.1-11.3h-23.6c-9.9,0-19.4,4.1-26.1,11.3c-6.7,7.2-10.2,17-9.6,26.8
			l1,16.1l2.4,37.5c1,15.1,9.5,28.5,22.8,35.8c6.7,3.7,14,5.5,21.3,5.5s14.6-1.8,21.3-5.5c13.3-7.3,21.8-20.7,22.8-35.8l2.8-42.9
			l0.7-10.7C428.6,313.4,425.1,303.7,418.3,296.5z M353.2,322c-0.3-4.3,1.2-8.4,4.1-11.5s6.9-4.9,11.3-4.9h16.3l-2.9,7.8
			c-1.5,2.1-8.7,10.8-28.4,14.1L353.2,322z M404.1,375.6c-0.5,8.1-5.1,15.3-12.2,19.3c-7.2,3.9-15.7,3.9-22.9,0
			c-7.1-3.9-11.7-11.1-12.2-19.3l-1.8-27.7c16.8-2.5,27.8-8.2,34.8-13.6c1.2,0.9,2.6,1.7,4.1,2.5c2.9,1.5,7,3,12.5,4.5L404.1,375.6z
			 M403.2,318.6c-0.5-0.2-0.8-0.4-1.2-0.6l2.4-6.4c2,2.5,3.1,5.5,3.2,8.7C405.1,319.4,403.8,318.9,403.2,318.6z"/>
	</g>
</g>
<g>
	<g>
		<path class="st0" d="M487.8,500l-3.9-21.6l0,0c-4.9-26.8-26.1-48.2-52.8-53.2c-4-0.8-8.2-1.1-12.3-1.1H407c-2.7,0-5.3,1.1-7.2,3
			l-19.4,19.4L361,427.1c-1.9-1.9-4.5-3-7.2-3H342c-4.1,0-8.2,0.4-12.3,1.1c-26.7,5-47.9,26.4-52.8,53.2L273,500
			c-0.5,3,0.3,6,2.2,8.4c1.9,2.3,4.8,3.7,7.8,3.7h194.7c3,0,5.9-1.3,7.8-3.7C487.5,506,488.3,503,487.8,500z M295.3,491.6l1.7-9.5
			c3.4-18.5,18-33.3,36.5-36.8c2.8-0.5,5.7-0.8,8.5-0.8h7.5l23.7,23.7c1.9,1.9,4.5,3,7.2,3s5.3-1.1,7.2-3l23.7-23.7h7.5
			c2.8,0,5.7,0.3,8.5,0.8c18.5,3.5,33.1,18.3,36.5,36.8l0,0l1.7,9.5H295.3z"/>
	</g>
</g>
<g>
	<g>
		<path class="st0" d="M450.8,254.5c-0.3-5.6-5.1-10-10.7-9.7s-10,5.1-9.7,10.7c0.2,3.3,0.3,6.7,0.3,10.1c0,5.6,4.6,10.2,10.2,10.2
			s10.2-4.6,10.2-10.2C451,261.9,450.9,258.1,450.8,254.5z"/>
	</g>
</g>
<g>
	<g>
		<path class="st0" d="M441.2,200.9c-13.4-42.8-40.7-81.1-76.9-108.1c-33.7-25.1-73.2-39.6-114.9-42.2l6-6c4-4,4-10.4,0-14.4
			s-10.4-4-14.4,0L217.2,54c-4,4-4,10.4,0,14.4L241,92.3c2,2,4.6,3,7.2,3s5.2-1,7.2-3c4-4,4-10.4,0-14.4l-6.8-6.8
			c80.1,5.2,148.7,58.5,173,136c1.4,4.4,5.4,7.1,9.7,7.1c1,0,2-0.2,3.1-0.5C439.9,212,442.8,206.3,441.2,200.9z"/>
	</g>
</g>
<g>
	<g>
		<path class="st0" d="M249.3,461.7l-23.8-23.8c-4-4-10.4-4-14.4,0s-4,10.4,0,14.4l7.5,7.5C119.1,451,40.8,367.3,40.8,265.6
			c0-5.6-4.6-10.2-10.2-10.2s-10.2,4.6-10.2,10.2c0,112.3,86.4,204.7,196.1,214.5l-5.4,5.4c-4,4-4,10.4,0,14.4c2,2,4.6,3,7.2,3
			s5.2-1,7.2-3l23.8-23.8C253.3,472.1,253.3,465.7,249.3,461.7z"/>
	</g>
</g>
</svg>
