<?xml version="1.0" encoding="utf-8"?>
<!-- Generator: Adobe Illustrator 21.0.0, SVG Export Plug-In . SVG Version: 6.00 Build 0)  -->
<svg version="1.1" xmlns="http://www.w3.org/2000/svg" xmlns:xlink="http://www.w3.org/1999/xlink" x="0px" y="0px"
	 viewBox="0 0 485 485" style="enable-background:new 0 0 485 485;" xml:space="preserve">
<g>
	<path d="M0,0v485h485V0H0z M455,455H30V30h425V455z"/>
</g>
<g>
	<g>
		<path d="M227.1,306.9c-24.4-2.5-46.4-8.6-65.3-23.3c-2.3-1.8-4.8-3.6-6.9-5.7c-8.3-7.9-9.1-17-2.6-26.4c5.6-8,15-10.1,24.7-5.5
			c1.9,0.9,3.7,2,5.4,3.2c35.1,24.1,83.4,24.8,118.7,1.1c3.5-2.7,7.2-4.9,11.6-6c8.4-2.2,16.3,0.9,20.8,8.3
			c5.2,8.4,5.1,16.6-1.3,23.1c-9.8,10-21.5,17.3-34.5,22.3c-12.3,4.8-25.8,7.2-39.2,8.8c2,2.2,3,3.3,4.2,4.5
			c18.1,18.2,36.4,36.4,54.4,54.7c6.2,6.2,7.4,14,4.1,21.2c-3.7,7.9-12,13.1-20.1,12.6c-5.2-0.4-9.2-2.9-12.8-6.5
			c-13.7-13.8-27.6-27.3-41-41.3c-3.9-4.1-5.8-3.3-9.2,0.2c-13.8,14.2-27.8,28.1-41.8,42c-6.3,6.2-13.8,7.4-21.2,3.8
			c-7.8-3.8-12.8-11.7-12.4-19.7c0.3-5.4,2.9-9.5,6.6-13.2c18-17.9,35.9-35.9,53.8-53.8C224.3,310,225.4,308.7,227.1,306.9z"/>
		<path d="M242,244.4c-43.6-0.1-79.3-36.3-79-79.9c0.3-44.1,36-79.7,80-79.5c44.1,0.1,79.5,36.2,79.2,80.8
			C321.9,209.3,286,244.6,242,244.4z M281.6,164.6c-0.1-21.7-17.3-38.9-39-38.9c-21.8,0-39.2,17.5-39,39.4
			c0.2,21.6,17.6,38.7,39.2,38.6C264.4,203.7,281.6,186.3,281.6,164.6z"/>
	</g>
</g>
</svg>
