<?xml version="1.0" encoding="utf-8"?>
<!-- Generator: Adobe Illustrator 21.0.0, SVG Export Plug-In . SVG Version: 6.00 Build 0)  -->
<svg version="1.1" xmlns="http://www.w3.org/2000/svg" xmlns:xlink="http://www.w3.org/1999/xlink" x="0px" y="0px"
	 viewBox="0 0 39 55" style="enable-background:new 0 0 39 55;" xml:space="preserve">
<style type="text/css">
	.st0{fill:#fff;}
</style>
<g>
	<path class="st0" d="M19.6,12c-3.9,0-7,3.1-7,7s3.1,7,7,7s7-3.1,7-7S23.4,12,19.6,12z M19.6,24c-2.8,0-5-2.2-5-5s2.2-5,5-5
		s5,2.2,5,5S22.3,24,19.6,24z"/>
	<path class="st0" d="M32.9,5.6C29.3,2,24.5,0,19.4,0C14.3,0,9.4,2,5.8,5.6c-6.7,6.7-7.5,19.3-1.8,27l15.4,22.2l15.3-22.2
		C40.5,24.9,39.6,12.3,32.9,5.6z M33.1,31.4L19.4,51.2L5.6,31.4C0.4,24.5,1.2,13.1,7.2,7c3.2-3.2,7.6-5,12.1-5s8.9,1.8,12.1,5
		C37.6,13.1,38.3,24.5,33.1,31.4z"/>
</g>
</svg>
