<?xml version="1.0" encoding="utf-8"?>
<!-- Generator: Adobe Illustrator 21.0.0, SVG Export Plug-In . SVG Version: 6.00 Build 0)  -->
<svg version="1.1" xmlns="http://www.w3.org/2000/svg" xmlns:xlink="http://www.w3.org/1999/xlink" x="0px" y="0px"
	 viewBox="0 0 612 612" style="enable-background:new 0 0 612 612;" xml:space="preserve">
<style type="text/css">
	.st0{fill:#B7E76D;}
</style>
<g>
	<g>
		<g>
			<path class="st0" d="M592.9,306c0-79.2-32.1-150.9-84-202.9c-51.9-51.9-123.6-84-202.9-84s-150.9,32.1-202.8,84
				c-51.9,51.9-84,123.6-84,202.9s32.1,151,84,202.9s123.6,84,202.8,84c79.2,0,150.9-32.1,202.9-84C560.8,457,592.9,385.2,592.9,306
				L592.9,306z M522.4,89.6C577.8,145,612,221.5,612,306c0,84.5-34.2,161-89.6,216.4C467,577.8,390.5,612,306,612
				s-161-34.2-216.4-89.6C34.3,467,0,390.5,0,306c0-84.5,34.2-161,89.6-216.4C145,34.3,221.5,0,306,0C390.5,0,467,34.2,522.4,89.6z"
				/>
			<path class="st0" d="M296.5,439.9c5.3,0,9.6,4.3,9.6,9.6c0,5.3-4.3,9.6-9.6,9.6H220c-5.3,0-9.6-4.3-9.6-9.6s4.3-9.6,9.6-9.6
				H296.5z"/>
			<path class="st0" d="M334.7,344.3c-5.3,0-9.6-4.3-9.6-9.6c0-5.3,4.3-9.6,9.6-9.6c18.5,0,35.2-7.5,47.3-19.6l0.5-0.5
				c11.8-12,19.1-28.6,19.1-46.8c0-18.5-7.5-35.2-19.6-47.3l-0.5-0.5c-12.1-11.8-28.6-19.1-46.8-19.1H220c-5.3,0-9.6-4.3-9.6-9.6
				c0-5.3,4.3-9.6,9.6-9.6h114.8c23.4,0,44.7,9.4,60.2,24.7l0.6,0.6c15.6,15.6,25.2,37.1,25.2,60.9c0,23.4-9.4,44.7-24.6,60.2
				l-0.6,0.6C380,334.6,358.5,344.3,334.7,344.3z"/>
			<path class="st0" d="M219.9,344.3c-5.3,0-9.6-4.3-9.6-9.6c0-5.3,4.3-9.6,9.6-9.6h114.7c5.3,0,9.6,4.3,9.6,9.6s-4.3,9.6-9.6,9.6
				H219.9z"/>
			<path class="st0" d="M267.7,449.5c0,5.3-4.3,9.6-9.6,9.6c-5.3,0-9.6-4.3-9.6-9.6V181.7c0-5.3,4.3-9.6,9.6-9.6
				c5.3,0,9.6,4.3,9.6,9.6V449.5z"/>
			<path class="st0" d="M219.9,382.5c-5.3,0-9.6-4.3-9.6-9.6c0-5.3,4.3-9.6,9.6-9.6h133.9c5.3,0,9.6,4.3,9.6,9.6
				c0,5.3-4.3,9.6-9.6,9.6H219.9z"/>
		</g>
	</g>
</g>
</svg>
