<?xml version="1.0" encoding="utf-8"?>
<!-- Generator: Adobe Illustrator 21.0.0, SVG Export Plug-In . SVG Version: 6.00 Build 0)  -->
<svg version="1.1" xmlns="http://www.w3.org/2000/svg" xmlns:xlink="http://www.w3.org/1999/xlink" x="0px" y="0px"
	 viewBox="0 0 502 513" style="enable-background:new 0 0 502 513;" xml:space="preserve">
<style type="text/css">
	.st0{fill:#303030;}
</style>
<g id="Layer_3">
	<path class="st0" d="M495.2,318.7l-57.5,19.9L410.6,323l63.2-21.9l-7.3-21.2L385,308.2l-23.7-13.8l0.6-1.4
		c4.9-11.8,7.4-24.3,7.4-37.2c0-12.8-2.4-25.3-7.4-37.2l-0.6-1.4l23.7-13.8l81.5,28.2l7.3-21.2l-63.2-21.9l27.1-15.6l57.5,20
		l7.3-21.2l-39.2-13.7l36-20.7L488,118.3L452,139l7.9-40.9l-22-4.2l-11.5,59.8l-27.1,15.6l12.6-65.7l-22-4.2l-16.3,84.7L349.8,198
		l-0.9-1.2c-15.9-20.6-38.7-33.8-64.3-37.2l-1.5-0.2v-27.4l65.2-56.5l-14.6-16.9L283,102.4V71.1l46.2-39.8l-14.6-16.9l-31.5,27.2V0
		H267v181.3c1.7-0.1,3.3-0.2,5-0.2c41.2,0,74.8,33.6,74.8,74.8c0,41.2-33.6,74.8-74.8,74.8c-1.7,0-3.4-0.1-5-0.2V512h16v-41.5
		l31.6,27.2l14.6-16.9l-46.1-39.9v-31.4l50.6,43.7l14.6-16.9L283,379.8v-27.4l1.5-0.2c25.6-3.4,48.5-16.5,64.3-37.2l0.9-1.2
		l23.8,13.8l16.3,84.7l22-4.2l-12.6-65.7l27.1,15.6l11.5,59.8l22-4.2l-7.9-40.9l36,20.7l11.2-19.3l-36-20.7l39.2-13.7L495.2,318.7z"
		/>
</g>
<g id="Layer_2">
	<g>
		<path class="st0" d="M239.5,446.6v49.9c0,9.1,7.4,16.5,16.5,16.5v-82.9C246.9,430.1,239.5,437.5,239.5,446.6z"/>
		<path class="st0" d="M239.5,17.5v49.9c0,9.1,7.3,16.5,16.5,16.5V1C246.9,1,239.5,8.4,239.5,17.5z"/>
		<path class="st0" d="M110.3,379.4L75,414.6c-6.5,6.5-6.5,16.9,0,23.4c3.2,3.2,7.5,4.8,11.7,4.8s8.5-1.6,11.7-4.8l35.3-35.3
			c6.5-6.5,6.5-16.9,0-23.4C127.2,372.9,116.7,372.9,110.3,379.4z"/>
		<path class="st0" d="M82.9,257c0-9.1-7.4-16.5-16.5-16.5H16.5C7.4,240.5,0,247.9,0,257c0,9.1,7.4,16.5,16.5,16.5h49.9
			C75.5,273.5,82.9,266.1,82.9,257z"/>
		<path class="st0" d="M110.2,134.6c3.2,3.2,7.5,4.8,11.7,4.8c4.2,0,8.5-1.6,11.7-4.8c6.5-6.5,6.5-16.9,0-23.4L98.4,76
			c-6.5-6.5-16.9-6.5-23.4,0s-6.5,16.9,0,23.4L110.2,134.6z"/>
		<path class="st0" d="M140.3,257c0-63.8,51.9-115.7,115.7-115.7v-33c-82,0-148.7,66.7-148.7,148.7S174,405.7,256,405.7v-33
			C192.2,372.7,140.3,320.8,140.3,257z"/>
	</g>
</g>
</svg>
