<?xml version="1.0" encoding="utf-8"?>
<!-- Generator: Adobe Illustrator 21.0.0, SVG Export Plug-In . SVG Version: 6.00 Build 0)  -->
<svg version="1.1" xmlns="http://www.w3.org/2000/svg" xmlns:xlink="http://www.w3.org/1999/xlink" x="0px" y="0px"
	 viewBox="0 0 155 137" style="enable-background:new 0 0 155 137;" xml:space="preserve">
<style type="text/css">
	.st0{fill:#B7E76D;}
</style>
<g>
	<g>
		<path class="st0" d="M150.7,75.1c7.9-7.8,5.4-23.6-8.2-23.6h-35.8c1.4-7.6,3.3-20.2,3.3-21.3c-0.8-11.2-7.9-24.9-8.2-25.5
			c-1.3-2.4-7.9-5.7-14.5-4.3c-8.6,1.8-9.5,7.3-9.4,8.8c0,0,0.4,15,0.4,19c-4.1,9-18.3,32.7-22.5,34.5c-1-0.6-2.2-1-3.4-1H6.9
			c-3.8,0-6.9,3.1-6.9,6.9v62.5c0.3,3.4,3.1,6,6.5,6h40.6c3.6,0,6.5-2.9,6.5-6.5v-2.1c0,0,1.5-0.1,2.2,0.3c2.6,1.7,5.8,3.7,10.1,3.7
			h60.6c22.7,0,20.2-20.1,18.2-22.9c3.8-4.2,6.2-11.5,3-17.3C150.2,89.8,154.6,82.6,150.7,75.1z M45.8,130.6H6.5V68.2h39.3V130.6z
			 M140.1,74.5l-0.4,1.5c10.4,3,4.9,15-2.6,15.8l-0.4,1.5c10,2.5,5.2,14.9-2.6,15.8l-0.4,1.5c8.2,1.3,6.2,15.3-6.2,15.3H65.8
			c-4.4,0-8.3-5-11.5-5h-2.8v-48c3.5-2.2,7.8-5,10.1-7c4.5-3.8,22.9-33.6,22.9-37.3S84.1,8.8,84.1,8.8s3.6-4.7,11.7-1.3
			c0,0,6.8,12.7,7.5,22.9c0,0-3.1,20.9-4.7,27.4h42.8C151.9,58,149.9,73,140.1,74.5z"/>
	</g>
</g>
</svg>
