<?xml version="1.0" encoding="utf-8"?>
<!-- Generator: Adobe Illustrator 21.0.0, SVG Export Plug-In . SVG Version: 6.00 Build 0)  -->
<svg version="1.1" xmlns="http://www.w3.org/2000/svg" xmlns:xlink="http://www.w3.org/1999/xlink" x="0px" y="0px"
	 viewBox="0 0 512 512" style="enable-background:new 0 0 512 512;" xml:space="preserve">
<style type="text/css">
	.st0{fill:#FFFFFF;}
</style>
<g>
	<g>
		<path class="st0" d="M193.5,272.7h-34.3c2.5,14.7,8.3,28.3,16.6,40l24.2-24.2C197.2,283.5,194.9,278.3,193.5,272.7z"/>
	</g>
</g>
<g>
	<g>
		<path class="st0" d="M175.7,199.4c-8.3,11.7-14.1,25.3-16.6,40h34.3c1.5-5.6,3.7-10.8,6.5-15.7L175.7,199.4z"/>
	</g>
</g>
<g>
	<g>
		<path class="st0" d="M272.7,159.1v34.3c5.6,1.5,10.8,3.7,15.7,6.5l24.2-24.2C301,167.5,287.4,161.7,272.7,159.1z"/>
	</g>
</g>
<g>
	<g>
		<path class="st0" d="M199.4,175.7l24.2,24.2c4.9-2.8,10.1-5,15.7-6.5v-34.3C224.6,161.7,211,167.5,199.4,175.7z"/>
	</g>
</g>
<g>
	<g>
		<path class="st0" d="M223.6,312l-24.2,24.2c11.7,8.3,25.3,14.1,40,16.6v-34.3h0C233.7,317.1,228.5,314.8,223.6,312z"/>
	</g>
</g>
<g>
	<g>
		<path class="st0" d="M288.4,312c-4.9,2.8-10.1,5-15.7,6.5v34.3c14.7-2.5,28.3-8.3,40-16.6L288.4,312z"/>
	</g>
</g>
<g>
	<g>
		<path class="st0" d="M437,75C388.7,26.6,324.4,0,256,0S123.3,26.6,75,75C26.6,123.3,0,187.6,0,256s26.6,132.7,75,181
			c48.4,48.4,112.6,75,181,75s132.7-26.6,181-75c48.4-48.4,75-112.6,75-181S485.4,123.3,437,75z M256,387.7
			c-72.6,0-131.7-59.1-131.7-131.7S183.4,124.3,256,124.3S387.7,183.4,387.7,256C387.7,328.6,328.6,387.7,256,387.7z"/>
	</g>
</g>
<g>
	<g>
		<path class="st0" d="M336.3,199.4L312,223.6c2.8,4.9,5,10.1,6.5,15.7h34.3C350.3,224.6,344.5,211,336.3,199.4z"/>
	</g>
</g>
<g>
	<g>
		<path class="st0" d="M318.5,272.7c-1.5,5.6-3.7,10.8-6.5,15.7l24.2,24.2c8.3-11.7,14.1-25.3,16.6-40L318.5,272.7L318.5,272.7z"/>
	</g>
</g>
<g>
	<g>
		<path class="st0" d="M278.1,233.9c-6-6-13.7-9.2-22.1-9.2c-8.5,0-16.1,3.2-22.1,9.2c-6,6-9.2,13.7-9.2,22.1
			c0,8.5,3.2,16.1,9.2,22.1c6,6,13.7,9.2,22.1,9.2c8.5,0,16.1-3.2,22.1-9.2c6-6,9.2-13.7,9.2-22.1
			C287.3,247.5,284.1,239.9,278.1,233.9z"/>
	</g>
</g>
</svg>
