<?xml version="1.0" encoding="utf-8"?>
<!-- Generator: Adobe Illustrator 21.0.0, SVG Export Plug-In . SVG Version: 6.00 Build 0)  -->
<svg version="1.1" xmlns="http://www.w3.org/2000/svg" xmlns:xlink="http://www.w3.org/1999/xlink" x="0px" y="0px"
	 viewBox="0 0 49 33" style="enable-background:new 0 0 49 33;" xml:space="preserve">
<style type="text/css">
	.st0{fill:#FFFFFF;}
</style>
<g>
	<path class="st0" d="M46,10.7c0,0-0.1-0.1-0.1-0.1l-1.7-1.7c1.4-0.3,3-1.5,3-2.7c0-1.4-2-1.9-3.7-1.9c-1.8,0-2,1.2-2,2.1L37,2.1
		c-0.9-0.9-2.6-1.6-3.9-1.6h-8.6h0h-8.6c-1.3,0-3,0.7-3.9,1.6L7.6,6.3c0-0.9-0.2-2.1-2-2.1c-1.7,0-3.7,0.5-3.7,1.9
		c0,1.2,1.5,2.4,3,2.7l-1.7,1.7c0,0-0.1,0.1-0.1,0.1c-1.8,1.6-3,4.5-3,6.6v6.3c0,1.5,0.6,2.9,1.6,3.9v2.4c0,1.4,1.2,2.6,2.7,2.6h3.2
		c1.5,0,2.7-1.2,2.7-2.6v-0.6h14.4h0h14.4v0.6c0,1.4,1.2,2.6,2.7,2.6h3.2c1.5,0,2.7-1.2,2.7-2.6v-2.4c1-1,1.6-2.4,1.6-3.9v-6.3
		C49,15.2,47.8,12.3,46,10.7z M13.6,4C14.2,3.4,15.3,3,15.9,3h8.6h0h8.6c0.5,0,1.6,0.4,2.3,0.9l5.8,5.6H24.5h0H7.8L13.6,4z M2,16.3
		c0-1.5,1.2-2.8,2.7-2.8c1.5,0,6.4,2.9,6.4,4.4s-4.9,1.2-6.4,1.2C3.2,19.1,2,17.9,2,16.3z M10.1,26.6H9.6H9.1l-3.1,0
		c-0.8-0.3-1.4-0.6-1.9-0.9c-0.2-0.2-0.4-0.3-0.5-0.5c-0.1-0.2-0.2-0.3-0.3-0.5c-0.4-1.1,0.4-2.1,0.4-2.1H9l3.5,4L10.1,26.6
		L10.1,26.6z M32,26.6h-7.5h0H17c-1.6,0-2.8-1.3-2.8-2.8h10.3h0h10.3C34.8,25.3,33.6,26.6,32,26.6z M32.7,21.8h-8.2h0h-8.2
		c-1.7,0-3.1-2.1-3.1-4.7h11.2h0h11.2C35.7,19.7,34.4,21.8,32.7,21.8z M45.6,24.6c-0.1,0.2-0.2,0.3-0.3,0.5
		c-0.1,0.2-0.3,0.3-0.5,0.5c-0.4,0.3-1,0.6-1.9,0.9l-3.1,0h-0.5h-0.5h-2.4l3.5-4h5.2C45.2,22.6,46,23.6,45.6,24.6z M44.3,19.1
		c-1.5,0-6.4,0.4-6.4-1.2s4.9-4.4,6.4-4.4c1.5,0,2.7,1.3,2.7,2.8C47,17.9,45.8,19.1,44.3,19.1z"/>
</g>
</svg>
