<?xml version="1.0" encoding="utf-8"?>
<!-- Generator: Adobe Illustrator 21.0.0, SVG Export Plug-In . SVG Version: 6.00 Build 0)  -->
<svg version="1.1" xmlns="http://www.w3.org/2000/svg" xmlns:xlink="http://www.w3.org/1999/xlink" x="0px" y="0px"
	 viewBox="0 0 512 512" style="enable-background:new 0 0 512 512;" xml:space="preserve">
<style type="text/css">
	.st0{fill:#FFFFFF;}
</style>
<g>
	<g>
		<g>
			<path class="st0" d="M494.9,254.4c-0.6-135.2-75-246.8-169.4-254l0,0C322.3,0.1,319,0,315.7,0H196.3c-44,0-84.4,22.9-115.6,60.6
				l2.6-0.7l59.5-17c2.4-0.7,5-0.3,7.1,1.1L170.7,58l20.9-13.9c2.5-1.7,5.8-1.9,8.6-0.5l29.7,14.9c-3.5,4.5-6.8,9.2-10,14.1
				L196.9,61l-21.5,14.3c-2.9,1.9-6.6,1.9-9.5,0l-22.3-14.9l-55.9,16l-22.8,5.7c-3.1,4.7-6,9.6-8.8,14.7l9.1,7.4l20.2,13.4
				l20.9-13.9c2.9-1.9,6.6-1.9,9.5,0l20.9,13.9l20.9-13.9c2.5-1.7,5.8-1.9,8.6-0.5l30.2,15.1c-2.1,5.2-4.1,10.6-6,16.1l-27.4-13.7
				l-21.5,14.3c-2.9,1.9-6.6,1.9-9.5,0l-20.9-13.9l-20.9,13.9c-2.9,1.9-6.6,1.9-9.5,0L55,118l-7-5.7c-12.1,25.3-21,53.9-26.1,84.6
				l6.8-6.7l24.9-25.5c1.6-1.6,3.8-2.6,6.1-2.6c2.2,0.1,4.5,0.9,6.1,2.5l19.6,19.6l19.6-19.6c3.3-3.3,8.7-3.3,12.1,0l19.6,19.6
				l19.6-19.6c3.3-3.3,8.7-3.3,12.1,0l10.8,10.8c-1.4,6.5-2.6,13.1-3.6,19.8c-0.7-0.4-1.5-0.8-2.1-1.4l-11-11l-19.6,19.6
				c-3.3,3.3-8.7,3.3-12.1,0l-19.6-19.6l-19.6,19.6c-3.3,3.3-8.7,3.3-12.1,0l-19.5-19.5l-19,19.4l-22.3,22.1
				c-0.2,2.8-0.5,5.6-0.6,8.5l12.2,7.3l28.1,14l21.3-21.2c3.3-3.3,8.7-3.3,12.1,0l19.6,19.6l19.6-19.6c2.8-2.8,7.1-3.3,10.4-1.3
				l29.8,17.9c0,2.2-0.1,4.3-0.1,6.5c0,4.5,0.1,9,0.2,13.5l-33.1-19.8L117,270.6c-3.3,3.3-8.7,3.3-12.1,0L85.3,251l-19.6,19.6
				c-2.6,2.6-6.6,3.3-9.9,1.6l-34.1-17.1l-4.7-2.8c0,1.2-0.1,2.5-0.1,3.7c0,29.7,3.6,58.1,10.1,84.6l25.5-38.2
				c1.4-2.1,3.7-3.5,6.3-3.8c2.6-0.2,5.1,0.7,6.9,2.5l19.6,19.6l19.6-19.6c3.3-3.3,8.7-3.3,12.1,0l19.6,19.6l19.6-19.6
				c3.3-3.3,8.7-3.3,12.1,0l5.7,5.7c1.1,8.7,2.5,17.3,4.2,25.7c-1.8-0.2-3.5-0.9-4.9-2.3l-11-11l-19.6,19.6c-3.3,3.3-8.7,3.3-12.1,0
				l-19.6-19.6l-19.6,19.6c-3.3,3.3-8.7,3.3-12.1,0l-18.2-18.2l-27.8,41.7c3.5,10.9,7.5,21.4,12,31.4l8.9-7.6l16.6-16.6
				c3.3-3.3,8.7-3.3,12.1,0l19.6,19.6l19.6-19.6c3.3-3.3,8.7-3.3,12.1,0l18.2,18.2l11.3-16.9c2.4-3.6,7.1-4.8,10.9-2.9l14.8,7.4
				c2.7,8.1,5.7,16,8.9,23.6l-24.6-12.3l-12.9,19.3c-1.4,2.1-3.7,3.5-6.3,3.8c-2.6,0.2-5.1-0.7-6.9-2.5L128,387.5l-19.6,19.6
				c-3.3,3.3-8.7,3.3-12.1,0l-19.6-19.6l-11,11l-12.8,11c9.8,18.6,21.3,35.2,34.2,49.3l10.9-5.5l25.2-16.8c2.9-1.9,6.6-1.9,9.5,0
				l20.9,13.9l20.9-13.9c2.9-1.9,6.6-1.9,9.5,0l20.9,13.9l15.4-10.2c3.2,4.8,6.5,9.5,9.9,13.9l-20.6,13.7c-2.9,1.9-6.6,1.9-9.5,0
				L179.2,454l-20.9,13.9c-2.9,1.9-6.6,1.9-9.5,0L128,454l-20.9,13.9c-0.3,0.2-0.6,0.4-0.9,0.5l-6.4,3.2
				c27.9,25.5,60.9,40.4,96.4,40.4h119.5c2.9,0,5.9-0.1,9-0.4h0c0.2,0,0.4,0,0.6,0c4.2-0.3,8.6-0.9,13.5-1.8
				c75.7-13.9,137.5-95,152.6-203.3c2.2-16.5,3.3-33.5,3.5-50.5C494.9,256,494.9,254.4,494.9,254.4z M474.5,304.2
				c-14.3,102.5-72.1,178.7-142.1,189.3c-2.6,0.4-5.2,0.9-7.8,1.1c-0.2,0-0.4-0.1-0.5-0.1c-2.5-0.2-5-0.6-7.4-1
				c-0.9-0.2-1.7-0.4-2.6-0.5c-1.8-0.4-3.6-0.8-5.4-1.3c-0.9-0.3-1.9-0.5-2.8-0.8c-1.7-0.5-3.4-1.1-5.1-1.8c-0.9-0.3-1.7-0.6-2.6-1
				c-2-0.8-3.9-1.7-5.8-2.6c-0.6-0.3-1.1-0.5-1.7-0.8c-2.5-1.3-5-2.6-7.5-4.1c-0.3-0.2-0.6-0.4-0.9-0.6c-2.1-1.3-4.3-2.7-6.3-4.2
				c-0.6-0.4-1.2-0.9-1.9-1.4c-1.8-1.3-3.6-2.7-5.3-4.1c-0.6-0.5-1.2-1-1.8-1.5c-1.9-1.6-3.7-3.2-5.5-4.9c-0.4-0.4-0.9-0.8-1.3-1.2
				c-6.9-6.6-13.4-14-19.5-22.3c-0.2-0.3-0.4-0.6-0.6-0.9c-1.9-2.6-3.7-5.2-5.5-7.9c-0.2-0.3-0.4-0.5-0.5-0.8
				c-7.9-12-14.9-25.5-21-40.1c-0.4-1-0.8-1.9-1.2-2.9c-1.9-4.7-3.7-9.5-5.4-14.5c0,0,0-0.1,0-0.1c-1.7-4.9-3.3-9.9-4.7-15.1
				c0,0,0-0.1,0-0.1c-1.4-5-2.8-10.1-4-15.2c-0.1-0.5-0.2-0.9-0.3-1.4c-1.2-4.9-2.2-10-3.2-15.1c0-0.2-0.1-0.4-0.1-0.6
				c-0.9-5.1-1.8-10.3-2.5-15.5c-0.1-0.9-0.3-1.9-0.4-2.8c-0.7-5-1.3-10-1.7-15.1c0-0.3-0.1-0.6-0.1-0.9c-0.5-5.2-0.8-10.5-1.1-15.8
				c-0.1-1.2-0.1-2.5-0.2-3.7c-0.2-5.4-0.4-10.7-0.4-16.2c0-4,0.1-7.9,0.2-11.8c0-1.3,0.1-2.5,0.2-3.7c0.1-2.7,0.2-5.3,0.4-8
				c0.1-1.6,0.2-3.3,0.4-4.9c0.2-2.2,0.3-4.4,0.5-6.6c0.2-2,0.4-3.9,0.6-5.9c0.2-1.8,0.4-3.7,0.6-5.5c0.2-1.9,0.5-3.8,0.8-5.7
				c0.2-1.8,0.5-3.7,0.7-5.5c0.3-1.9,0.6-3.7,0.9-5.5c0.3-1.8,0.6-3.7,0.9-5.5c0.3-1.9,0.7-3.7,1.1-5.6c0.3-1.7,0.7-3.5,1-5.2
				c0.4-1.9,0.9-3.8,1.3-5.7c0.4-1.6,0.7-3.2,1.1-4.8c0.5-1.9,1-3.9,1.5-5.8c0.4-1.5,0.8-3,1.2-4.5c0.5-1.9,1.1-3.8,1.7-5.6
				c0.4-1.5,0.9-3,1.3-4.4c0.6-1.8,1.2-3.6,1.8-5.5c0.5-1.4,0.9-2.9,1.5-4.3c0.7-1.9,1.4-3.8,2.1-5.6c0.5-1.3,0.9-2.6,1.4-3.8
				c0.8-2,1.6-3.9,2.4-5.8c0.5-1.1,0.9-2.3,1.4-3.4c0.8-1.9,1.7-3.7,2.6-5.6c0.5-1.1,1-2.2,1.5-3.3c0.9-1.8,1.8-3.6,2.7-5.3
				c0.5-1.1,1.1-2.2,1.6-3.2c0.9-1.7,1.9-3.4,2.8-5.2c0.6-1,1.1-2.1,1.7-3.1c1-1.7,1.9-3.3,2.9-4.9c0.6-1,1.2-2,1.8-3
				c1-1.6,2-3.1,3.1-4.7c0.6-0.9,1.2-1.9,1.9-2.8c1.1-1.5,2.2-3,3.3-4.5c0.6-0.9,1.3-1.8,1.9-2.6c1.1-1.5,2.3-2.9,3.4-4.3
				c0.6-0.8,1.3-1.6,1.9-2.4c1.2-1.4,2.4-2.7,3.6-4.1c0.7-0.7,1.3-1.5,2-2.2c1.2-1.3,2.4-2.5,3.7-3.8c0.7-0.7,1.4-1.4,2.1-2.1
				c1.2-1.2,2.5-2.3,3.7-3.5c0.7-0.7,1.5-1.4,2.2-2c1.3-1.1,2.6-2.2,3.9-3.2c0.7-0.6,1.5-1.2,2.2-1.8c1.3-1,2.7-2,4-2.9
				c0.7-0.5,1.5-1.1,2.2-1.6c1.3-0.9,2.7-1.7,4.1-2.6c0.8-0.5,1.6-1,2.4-1.5c1.4-0.8,2.7-1.5,4.1-2.3c0.8-0.4,1.6-0.9,2.4-1.3
				c1.4-0.7,2.8-1.3,4.2-2c0.8-0.4,1.7-0.8,2.5-1.1c1.4-0.6,2.8-1.1,4.3-1.6c0.9-0.3,1.7-0.7,2.6-1c1.4-0.5,2.9-0.9,4.3-1.3
				c0.9-0.3,1.8-0.5,2.7-0.8c1.4-0.4,2.9-0.6,4.3-0.9c0.9-0.2,1.9-0.4,2.8-0.6c1.4-0.2,2.9-0.4,4.3-0.6c0.9-0.1,1.8-0.3,2.7-0.3
				c85.2,7.1,152.3,111,152.9,236.9l0,1.6C477.7,272.2,476.6,288.4,474.5,304.2z"/>
			<path class="st0" d="M252.9,152c-0.3-0.3-0.5-0.6-0.8-0.9l-3.1-4c-11.7,30.5-18.6,68-18.6,108.9c0,40.7,6.8,78,18.4,108.4
				l3.8-4.1c17.5-17.3,29-59.1,29-104.3C281.6,210.7,270,168.9,252.9,152z"/>
			<path class="st0" d="M332.8,68.3c-30.5,0-57.4,23.4-76,61l8.4,11c20.3,20.5,33.4,65.8,33.4,115.7c0,50.3-13.3,95.9-33.8,116.2
				l-8.6,9.4c18.6,38.3,45.8,62.2,76.6,62.2c57.4,0,102.4-82.5,102.4-187.7S390.2,68.3,332.8,68.3z"/>
		</g>
	</g>
</g>
</svg>
