<?xml version="1.0" encoding="utf-8"?>
<!-- Generator: Adobe Illustrator 21.0.0, SVG Export Plug-In . SVG Version: 6.00 Build 0)  -->
<svg version="1.1" xmlns="http://www.w3.org/2000/svg" xmlns:xlink="http://www.w3.org/1999/xlink" x="0px" y="0px"
	 viewBox="0 0 512 512" style="enable-background:new 0 0 512 512;" xml:space="preserve">
<style type="text/css">
	.st0{fill:#FFFFFF;}
</style>
<g>
	<g>
		<g>
			<path class="st0" d="M256,0C114.6,0,0,114.6,0,256s114.6,256,256,256s256-114.6,256-256S397.4,0,256,0z M256,469.3
				c-117.8,0-213.3-95.5-213.3-213.3S138.2,42.7,256,42.7S469.3,138.2,469.3,256S373.8,469.3,256,469.3z"/>
			<path class="st0" d="M391.8,120.3C391.8,120.3,391.8,120.3,391.8,120.3c-0.1-0.1-0.1-0.1-0.1-0.1C357,85.5,309,64,256,64
				c-53,0-100.9,21.5-135.7,56.2c0,0-0.1,0.1-0.1,0.1s-0.1,0.1-0.1,0.1C85.5,155.1,64,203,64,256c0,52.9,21.4,100.7,55.9,135.5
				c0.1,0.1,0.2,0.2,0.3,0.3s0.2,0.2,0.3,0.3C155.3,426.6,203.1,448,256,448s100.7-21.4,135.5-55.9c0.1-0.1,0.2-0.2,0.3-0.3
				s0.2-0.2,0.3-0.3C426.6,356.7,448,308.9,448,256C448,203,426.5,155,391.8,120.3z M375.6,345.4l-46.1-46.1c4-6.8,7.1-14.2,9.1-22
				h65.2C400.2,302.6,390.2,325.9,375.6,345.4z M108.2,277.3h65.2c2,7.8,5.1,15.2,9.1,22l-46.1,46.1
				C121.8,325.9,111.8,302.6,108.2,277.3z M136.4,166.6l46.1,46.1c-4,6.8-7.1,14.2-9.1,22h-65.2
				C111.8,209.4,121.8,186.1,136.4,166.6z M286.2,286.2C286.2,286.2,286.2,286.2,286.2,286.2c-7.7,7.7-18.4,12.5-30.2,12.5
				s-22.4-4.8-30.1-12.5c0,0,0,0,0,0s0,0,0,0c-7.7-7.7-12.5-18.4-12.5-30.1c0-11.7,4.7-22.3,12.4-30c0,0,0.1-0.1,0.1-0.1
				s0.1-0.1,0.1-0.1c7.7-7.6,18.3-12.4,30-12.4c11.7,0,22.3,4.7,30,12.3c0,0.1,0.1,0.1,0.1,0.2c0.1,0.1,0.1,0.1,0.2,0.1
				c7.6,7.7,12.3,18.3,12.3,30C298.7,267.8,293.9,278.4,286.2,286.2C286.2,286.2,286.2,286.2,286.2,286.2z M299.3,182.5
				c-6.8-4-14.2-7.1-22-9.1v-65.2c25.3,3.6,48.5,13.6,68.1,28.2L299.3,182.5z M234.7,173.4c-7.8,2-15.2,5.1-22,9.1l-46.1-46.1
				c19.5-14.6,42.8-24.6,68.1-28.2V173.4z M212.7,329.5c6.8,4,14.2,7.1,22,9.1v65.2c-25.3-3.6-48.6-13.6-68.1-28.2L212.7,329.5z
				 M277.3,338.6c7.8-2,15.2-5.1,22-9.1l46.1,46.1c-19.5,14.6-42.8,24.6-68.1,28.2V338.6z M338.6,234.7c-2-7.8-5.1-15.2-9.1-22
				l46.1-46.1c14.6,19.5,24.6,42.8,28.2,68.1L338.6,234.7L338.6,234.7z"/>
		</g>
	</g>
</g>
</svg>
