<?xml version="1.0" encoding="utf-8"?>
<!-- Generator: Adobe Illustrator 21.0.0, SVG Export Plug-In . SVG Version: 6.00 Build 0)  -->
<svg version="1.1" xmlns="http://www.w3.org/2000/svg" xmlns:xlink="http://www.w3.org/1999/xlink" x="0px" y="0px"
	 viewBox="0 0 153 143" style="enable-background:new 0 0 153 143;" xml:space="preserve">
<style type="text/css">
	.st0{fill:#B7E76D;}
</style>
<path class="st0" d="M139.4,142.7H13.8c-7.6,0-13.8-6.2-13.8-13.8V33.2c0-7.6,6.2-13.8,13.8-13.8h43.5c0.1,0,0.2-0.1,0.3-0.1
	l59.1-18.7c0.7-0.2,1.4-0.1,2,0.2c0.6,0.3,1,0.9,1.2,1.6l4.5,17.1h15c7.6,0,13.8,6.2,13.8,13.8V129
	C153.2,136.5,147,142.7,139.4,142.7z M13.8,24.4C9,24.4,5,28.3,5,33.2v95.7c0,4.8,3.9,8.8,8.8,8.8h125.6c4.8,0,8.8-3.9,8.8-8.8V99.2
	h-46.6c-6.1,0-11-4.9-11-11V73.9c0-6.1,4.9-11,11-11h46.6V33.2c0-4.8-3.9-8.8-8.8-8.8C139.4,24.4,13.8,24.4,13.8,24.4z M101.6,67.9
	c-3.3,0-6,2.7-6,6v14.3c0,3.3,2.7,6,6,6h46.6V67.9H101.6z M73.8,19.4h45.4l-3.5-13.3L73.8,19.4z M109.6,89.9c-4.9,0-8.9-4-8.9-8.9
	s4-8.9,8.9-8.9s8.9,4,8.9,8.9S114.5,89.9,109.6,89.9z M109.6,77.2c-2.1,0-3.9,1.7-3.9,3.9s1.7,3.9,3.9,3.9s3.9-1.7,3.9-3.9
	S111.7,77.2,109.6,77.2z"/>
</svg>
