<?xml version="1.0" encoding="iso-8859-1"?>
<!-- Generator: Adobe Illustrator 21.0.0, SVG Export Plug-In . SVG Version: 6.00 Build 0)  -->
<svg version="1.1" xmlns="http://www.w3.org/2000/svg" xmlns:xlink="http://www.w3.org/1999/xlink" x="0px" y="0px"
	 viewBox="61.507 226.12 290.692 290.236" style="enable-background:new 61.507 226.12 290.692 290.236;" xml:space="preserve">
<g transform="translate(1 1)">
	<path style="fill:#C2494A;" d="M342.533,515.467H69.467c-2.56,0-5.973-1.707-7.68-4.267s-1.707-5.973,0-8.533L198.32,229.6
		c2.56-5.973,11.947-5.973,15.36,0l136.533,273.067c1.707,2.56,0.853,5.973,0,8.533C349.36,513.76,345.093,515.467,342.533,515.467z
		 M83.12,498.4h245.76L206,252.64L83.12,498.4z"/>
	<path style="fill:#333333;" d="M206,438.667c-5.12,0-8.533-3.413-8.533-8.533v-93.867c0-5.12,3.413-8.533,8.533-8.533
		c5.12,0,8.533,3.413,8.533,8.533v93.867C214.533,435.253,211.12,438.667,206,438.667z"/>
	<path style="fill:#333333;" d="M214.533,464.267c0,5.12-3.413,8.533-8.533,8.533c-5.12,0-8.533-3.413-8.533-8.533
		c0-5.12,3.413-8.533,8.533-8.533C211.12,455.733,214.533,459.147,214.533,464.267"/>
</g>
</svg>
