<?xml version="1.0" encoding="utf-8"?>
<!-- Generator: Adobe Illustrator 21.0.0, SVG Export Plug-In . SVG Version: 6.00 Build 0)  -->
<svg version="1.1" xmlns="http://www.w3.org/2000/svg" xmlns:xlink="http://www.w3.org/1999/xlink" x="0px" y="0px"
	 viewBox="0 0 290.7 290.2" style="enable-background:new 0 0 290.7 290.2;" xml:space="preserve">
<style type="text/css">
	.st0{fill:#303030;}
	.st1{fill:#606060;}
</style>
<g transform="translate(1 1)">
	<path class="st0" d="M281,289.3H8c-2.6,0-6-1.7-7.7-4.3s-1.7-6,0-8.5L136.8,3.5c2.6-6,11.9-6,15.4,0l136.5,273.1
		c1.7,2.6,0.9,6,0,8.5C287.9,287.6,283.6,289.3,281,289.3z M21.6,272.3h245.8L144.5,26.5L21.6,272.3z"/>
</g>
<g>
	<path class="st1" d="M116.5,159.3v65.9h20v-65.9h17.9v65.9h20v-65.9h17.9v80.9H98.6v-80.9H116.5z"/>
</g>
</svg>
