<?xml version="1.0" encoding="utf-8"?>
<!-- Generator: Adobe Illustrator 21.0.0, SVG Export Plug-In . SVG Version: 6.00 Build 0)  -->
<svg version="1.1" xmlns="http://www.w3.org/2000/svg" xmlns:xlink="http://www.w3.org/1999/xlink" x="0px" y="0px"
	 viewBox="0 0 454.8 454.8" style="enable-background:new 0 0 454.8 454.8;" xml:space="preserve">
<style type="text/css">
	.st0{fill:#B7E76D;}
</style>
<g>
	<path class="st0" d="M388.2,66.6C345.2,23.7,288.1,0,227.4,0S109.5,23.7,66.6,66.6C23.7,109.5,0,166.6,0,227.4
		s23.7,117.8,66.6,160.8c42.9,42.9,100,66.6,160.8,66.6s117.8-23.7,160.8-66.6c42.9-42.9,66.6-100,66.6-160.8
		S431.1,109.5,388.2,66.6z M227.4,436.8C111.9,436.8,18,342.8,18,227.4S111.9,18,227.4,18s209.4,93.9,209.4,209.4
		C436.8,342.8,342.8,436.8,227.4,436.8z"/>
	<path class="st0" d="M259,227.4c0-17.4-14.2-31.6-31.6-31.6c-17.4,0-31.6,14.2-31.6,31.6s14.2,31.6,31.6,31.6
		C244.8,259,259,244.8,259,227.4z M213.7,227.4c0-7.5,6.1-13.6,13.6-13.6c7.5,0,13.6,6.1,13.6,13.6c0,7.5-6.1,13.6-13.6,13.6
		C219.9,241,213.7,234.9,213.7,227.4z"/>
	<path class="st0" d="M227.4,87.9c-76.9,0-139.5,62.6-139.5,139.5s62.6,139.5,139.5,139.5c76.9,0,139.5-62.6,139.5-139.5
		S304.3,87.9,227.4,87.9z M348.9,227.4c0,13.1-2.1,25.7-6,37.6l-49.2-32.4c-2.5-1.7-2.8-4.2-2.8-5.2s0.3-3.6,2.8-5.2l49.2-32.4
		C346.8,201.6,348.9,214.3,348.9,227.4z M317.6,146.1l-52.6,26.4c-2.7,1.4-5.1,0.3-5.9-0.2c-0.9-0.5-2.9-2-3.1-5.1l-3.4-58.8
		C278.1,113.9,300.8,127.4,317.6,146.1z M202.1,108.5l-3.4,58.8c-0.2,3-2.2,4.5-3.1,5c-0.9,0.5-3.2,1.5-5.9,0.2l-52.6-26.4
		C154,127.4,176.6,113.9,202.1,108.5z M105.9,227.4c0-13.1,2.1-25.7,6-37.6l49.2,32.4c2.5,1.7,2.8,4.2,2.8,5.2s-0.3,3.6-2.8,5.2
		l-49.2,32.4C108,253.1,105.9,240.5,105.9,227.4z M137.1,308.6l52.6-26.4c2.7-1.4,5.1-0.3,5.9,0.2c0.9,0.5,2.9,2,3.1,5l3.4,58.8
		C176.6,340.8,154,327.3,137.1,308.6z M220.3,348.7l-3.6-62.3c-0.5-8.2-5-15.5-12.1-19.6c-7.1-4.1-15.7-4.3-23-0.7l-55.7,28
		c-2.6-3.9-5-8-7.1-12.2l52.1-34.3c6.8-4.5,10.9-12.1,10.9-20.3s-4.1-15.8-10.9-20.3l-52.1-34.3c2.1-4.2,4.5-8.3,7.1-12.2l55.7,28
		c3.4,1.7,7.2,2.6,10.9,2.6c4.2,0,8.4-1.1,12.1-3.3c7.1-4.1,11.6-11.4,12.1-19.6l3.6-62.3c2.3-0.1,4.7-0.2,7.1-0.2
		c2.4,0,4.7,0.1,7.1,0.2l3.6,62.3c0.5,8.2,5,15.5,12.1,19.6c3.8,2.2,7.9,3.3,12.1,3.3c3.7,0,7.4-0.9,10.9-2.6l55.7-28
		c2.6,3.9,5,8,7.1,12.2l-52.1,34.3c-6.8,4.5-10.9,12.1-10.9,20.3s4.1,15.8,10.9,20.3l52.1,34.3c-2.1,4.2-4.5,8.3-7.1,12.2l-55.7-28
		c-7.3-3.7-15.9-3.4-23,0.7c-7.1,4.1-11.6,11.4-12.1,19.6l-3.6,62.3c-2.3,0.1-4.7,0.2-7.1,0.2C225,348.9,222.7,348.8,220.3,348.7z
		 M252.6,346.2l3.4-58.8c0.2-3,2.2-4.5,3.1-5c0.9-0.5,3.2-1.5,5.9-0.2l52.6,26.4C300.8,327.3,278.1,340.8,252.6,346.2z"/>
</g>
</svg>
