<?xml version="1.0" encoding="utf-8"?>
<!-- Generator: Adobe Illustrator 21.0.0, SVG Export Plug-In . SVG Version: 6.00 Build 0)  -->
<svg version="1.1" xmlns="http://www.w3.org/2000/svg" xmlns:xlink="http://www.w3.org/1999/xlink" x="0px" y="0px"
	 viewBox="0 0 512 512" style="enable-background:new 0 0 512 512;" xml:space="preserve">
<style type="text/css">
	.st0{fill:#B7E76D;}
</style>
<g>
	<g>
		<path class="st0" d="M498.3,173.3c6.7-10.8,11.6-22.9,11.6-35.1c0-28.4-23.1-51.5-51.5-51.5c-3.3,0-6.5,0.3-9.7,0.9
			C400.1,31.9,330.1,0,256,0C187.6,0,123.3,26.6,75,75C26.6,123.3,0,187.6,0,256s26.6,132.7,75,181c48.4,48.4,112.6,75,181,75
			s132.7-26.6,181-75c48.4-48.4,75-112.6,75-181C512,227.7,507.4,199.8,498.3,173.3z M458.5,107.1c17.2,0,31.1,14,31.1,31.1
			c0,17.8-18.8,39.4-31.1,51.1c-12.3-11.7-31.1-33.3-31.1-51.1C427.3,121,441.3,107.1,458.5,107.1z M428.9,96
			c-13.3,9.3-22,24.7-22,42.2c0,34.8,40.4,68.9,45,72.7c1.9,1.5,4.2,2.3,6.5,2.3s4.6-0.8,6.5-2.3c1.9-1.5,9.7-8.1,18.2-17.6
			c4.7,16.9,7.4,34.4,8.2,52h-87.6c-1.5-62.8-16.1-121.7-41.5-166.7c-11.1-19.6-23.7-35.7-37.4-48C364.4,42.7,400.3,65.1,428.9,96z
			 M245.8,23.2v222.1H128.6c0.8-31.5,5-61.9,12.4-89.8c11.9,23.5,34.3,42.4,37.7,45.1c1.9,1.5,4.2,2.3,6.5,2.3s4.6-0.8,6.5-2.3
			c4.6-3.8,45-37.9,45-72.7c0-28.4-23.1-51.5-51.5-51.5c-3.8,0-7.4,0.4-11,1.2C194.6,46,219.5,27.1,245.8,23.2z M154,128
			c0-17.2,14-31.1,31.1-31.1s31.1,14,31.1,31.1c0,17.8-18.8,39.4-31.1,51.1C172.8,167.4,154,145.8,154,128z M187.1,30.7
			C173.4,43,160.8,59,149.8,78.6c-25.4,45-40,103.8-41.5,166.7H20.7C25.2,144,94,59.2,187.1,30.7z M20.6,265.7h87.6
			c1.4,63.2,16,122.5,41.5,167.7c11.1,19.6,23.7,35.7,37.4,47.9C93.7,452.7,24.8,367.4,20.6,265.7z M245.8,488.8
			c-29.2-4.3-56.7-27.2-78.3-65.4c-23.9-42.3-37.6-97.9-38.9-157.7h117.2v53.5c-23.8,4.5-41.8,25.5-41.8,50.6
			c0,30.5,31,60.4,41.8,69.9L245.8,488.8L245.8,488.8z M255.5,420.8c-12.3-11.7-31.1-33.3-31.1-51.1c0-17.2,14-31.1,31.1-31.1
			s31.1,14,31.1,31.1C286.6,387.5,267.8,409.1,255.5,420.8z M266.2,488.8v-50.1c11.6-10.4,40.8-39.4,40.8-69
			c0-24.7-17.5-45.4-40.8-50.4V23.2c29.2,4.3,56.7,27.2,78.3,65.4c23.7,42,37.4,97.3,38.9,156.6h-47.8c-5.6,0-10.2,4.6-10.2,10.2
			s4.6,10.2,10.2,10.2h47.8c-1.3,59.7-15,115.4-38.9,157.7C322.9,461.6,295.4,484.5,266.2,488.8z M324.9,481.3
			c13.7-12.3,26.3-28.4,37.4-47.9c25.6-45.2,40.2-104.5,41.5-167.7h87.6C487.3,367.4,418.3,452.7,324.9,481.3z"/>
	</g>
</g>
<g>
	<g>
		<path class="st0" d="M298.8,245.3h-6.1c-5.6,0-10.2,4.6-10.2,10.2s4.6,10.2,10.2,10.2h6.1c5.6,0,10.2-4.6,10.2-10.2
			S304.5,245.3,298.8,245.3z"/>
	</g>
</g>
<g>
	<g>
		<path class="st0" d="M458.5,125.4c-5.6,0-10.2,4.6-10.2,10.2v4.1c0,5.6,4.6,10.2,10.2,10.2s10.2-4.6,10.2-10.2v-4.1
			C468.7,130,464.1,125.4,458.5,125.4z"/>
	</g>
</g>
<g>
	<g>
		<path class="st0" d="M185.1,115.3c-5.6,0-10.2,4.6-10.2,10.2v4.1c0,5.6,4.6,10.2,10.2,10.2s10.2-4.6,10.2-10.2v-4.1
			C195.3,119.8,190.7,115.3,185.1,115.3z"/>
	</g>
</g>
<g>
	<g>
		<path class="st0" d="M255.5,357c-5.6,0-10.2,4.6-10.2,10.2v4.1c0,5.6,4.6,10.2,10.2,10.2s10.2-4.6,10.2-10.2v-4.1
			C265.7,361.5,261.1,357,255.5,357z"/>
	</g>
</g>
</svg>
